<?xml version="1.0" encoding="UTF-8" standalone="no"?>
<svg
   xmlns:dc="http://purl.org/dc/elements/1.1/"
   xmlns:cc="http://creativecommons.org/ns#"
   xmlns:rdf="http://www.w3.org/1999/02/22-rdf-syntax-ns#"
   xmlns:svg="http://www.w3.org/2000/svg"
   xmlns="http://www.w3.org/2000/svg"
   height="1080"
   width="1920"
   xml:space="preserve"
   viewBox="0 0 1920 1080"
   y="0px"
   x="0px"
   id="Ebene_1"
   version="1.1"><metadata
   id="metadata49"><rdf:RDF><cc:Work
       rdf:about=""><dc:format>image/svg+xml</dc:format><dc:type
         rdf:resource="http://purl.org/dc/dcmitype/StillImage" /><dc:title></dc:title></cc:Work></rdf:RDF></metadata><defs
   id="defs47" />
<style
   id="style2"
   type="text/css">
	.st0{fill:#F14531;}
	.st1{fill:#616364;}
	.st2{fill:#393536;}
</style>



















<g
   transform="matrix(2.996823,0,0,2.996823,650.27835,418.77851)"
   id="g876"><path
     style="fill:#f14531"
     class="st0"
     d="m 56.2,46.5 v 5.8 l -17.7,10.2 v -23.7 l 6.3,-3.7 -5.3,-3.1 -15.9,9.2 5.3,3.1 4.2,-2.4 v 20.6 l -17.5,-10.1 v -23.8 l 20.3,-11.7 20.3,11.7 v 5.8 l -10.7,6.2 v 6.1 l 5.4,-3.1 5.3,2.9 m 5.3,-21 -25.6,-14.8 -25.6,14.8 v 30 0 l 25.5,14.7 v 0 0 0 0 l 25.6,-14.8 v 0 0 -11.9 0 0 l -5.3,-3 5.3,-3 -0.1,-0.1 h 0.1 v -11.9"
     id="path4" /><path
     style="fill:#616364"
     class="st1"
     d="m 94.5,32.3 c -0.5,3.3 -0.2,4.1 2,4.1 2.1,0 2.7,-0.9 3.2,-4.6 0.5,-3.4 0.2,-4.2 -1.8,-4.2 -2.2,0.1 -2.9,0.9 -3.4,4.7 z m 11.3,0 c -0.9,6.1 -3.4,8.2 -9.5,8.2 -6.2,0 -8.8,-2.3 -7.9,-8.7 0.8,-6.2 3.3,-8.3 9.6,-8.3 6.1,0.1 8.7,2.5 7.8,8.8"
     id="path6" /><path
     style="fill:#616364"
     class="st1"
     d="m 114.1,32.3 c -0.5,3.3 -0.2,4.1 2,4.1 2.1,0 2.7,-0.9 3.2,-4.6 0.5,-3.4 0.2,-4.2 -1.8,-4.2 -2.2,0.1 -2.9,0.9 -3.4,4.7 z m 11.3,0 c -0.9,6.1 -3.4,8.2 -9.5,8.2 -6.2,0 -8.8,-2.3 -7.9,-8.7 0.8,-6.2 3.3,-8.3 9.6,-8.3 6.1,0.1 8.7,2.5 7.8,8.8"
     id="path8" /><path
     style="fill:#616364"
     class="st1"
     d="m 133.6,34.7 c -0.2,1 0.1,1.3 1.4,1.3 h 1.4 l 0.3,4 c -0.9,0.5 -3.3,0.7 -4.3,0.7 -3.4,0 -5.2,-1.8 -4.9,-4.6 l 2.6,-18.6 h 5.9 l -2.4,17.2"
     id="path10" /><path
     style="fill:#616364"
     class="st1"
     d="m 144.6,36.4 c 0.8,0.1 1.5,0.1 2,0.1 2.3,-0.1 3,-0.8 3.6,-4.7 0.4,-3 0.2,-3.6 -1,-3.6 -1.2,0 -2.4,0.6 -3.6,1.6 z m 2,-14.3 c -0.1,1.4 -0.4,2.7 -1,4.1 1.6,-1.5 3.7,-2.7 6,-2.7 3.9,0 5.5,2.5 4.6,8.6 -0.7,5.1 -2.8,8.4 -9,8.4 -2.4,0 -7,-0.5 -9,-1.3 l 3.1,-21.9 h 5.9 l -0.6,4.8"
     id="path12" /><path
     style="fill:#616364"
     class="st1"
     d="m 164.6,32.3 c -0.5,3.3 -0.2,4.1 2,4.1 2.1,0 2.7,-0.9 3.2,-4.6 0.5,-3.4 0.2,-4.2 -1.8,-4.2 -2.2,0.1 -2.9,0.9 -3.4,4.7 z m 11.3,0 c -0.9,6.1 -3.4,8.2 -9.5,8.2 -6.2,0 -8.8,-2.3 -7.9,-8.7 0.8,-6.2 3.3,-8.3 9.6,-8.3 6.2,0.1 8.7,2.5 7.8,8.8"
     id="path14" /><polyline
     style="fill:#616364"
     class="st1"
     points="194.3,40.2 188.7,40.2 186.1,33.7 181.6,40.2 175.5,40.2 181.5,31.9 178.2,24 183.7,24 186.1,30.1   190.4,24 196.4,24 190.7,31.9 194.3,40.2 "
     id="polyline16" /><path
     style="fill:#393536"
     class="st2"
     d="m 81,55.2 c 1.3,0 1.8,-0.3 2,-1.7 0.2,-1.2 -0.2,-1.4 -1.5,-1.4 h -2 l -0.4,3.1 z m -0.8,5.4 c 1.6,0 2.1,-0.3 2.3,-1.8 0.2,-1.4 -0.2,-1.8 -1.6,-1.8 h -2.1 l -0.5,3.6 z m -3.1,-10.5 c 1.4,-0.1 2.6,-0.1 4.5,-0.1 3.1,0 4.4,0.7 4,3.3 -0.3,1.7 -0.9,2.6 -2.5,2.7 v 0.1 c 1.9,0.1 2.4,1.4 2.1,3.4 -0.4,2.5 -1.6,3.1 -4.5,3.1 -2.5,0 -3.8,0 -5.3,-0.1 l 1.7,-12.4"
     id="path18" /><path
     style="fill:#393536"
     class="st2"
     d="m 90.1,56.4 c -0.5,3.2 -0.1,4.1 1.8,4.1 1.9,0 2.6,-0.9 3.1,-4.3 0.5,-3.3 0.1,-4.1 -1.8,-4.1 -1.9,0 -2.6,0.9 -3.1,4.3 z m 7.7,0 c -0.7,4.9 -2.3,6.3 -6,6.3 -3.8,0 -5.3,-1.5 -4.6,-6.6 0.7,-4.8 2.2,-6.3 6,-6.3 3.8,0.1 5.3,1.7 4.6,6.6"
     id="path20" /><path
     style="fill:#393536"
     class="st2"
     d="m 102.1,60.5 c 0.6,0 1.2,0 1.6,0 2.1,0 2.9,-0.6 3.4,-4.3 0.5,-3.5 0.1,-4.1 -2,-4.1 h -1.9 z m -1.3,-10.4 c 1.3,-0.1 3.1,-0.2 4.4,-0.2 4,0 5.5,1.5 4.8,6.5 -0.8,5.4 -2.3,6.3 -6.3,6.3 -1.5,0 -3.2,-0.1 -4.7,-0.2 l 1.8,-12.4"
     id="path22" /><path
     style="fill:#393536"
     class="st2"
     d="m 116.2,52.3 c -0.7,0 -1,0.2 -1,1 l -0.3,1.9 h 4.9 l -0.3,1.9 h -4.9 l -0.3,2.4 c -0.1,0.7 0.1,0.9 0.8,0.9 h 4.6 l -0.1,2 c -1.6,0.2 -3.6,0.2 -5.4,0.2 -2.1,0 -3,-1.2 -2.7,-3 l 1,-7.1 c 0.2,-1.5 1.2,-2.4 3,-2.4 2,0 4.1,0 5.7,0.2 l -0.3,2 h -4.7"
     id="path24" /><path
     style="fill:#393536"
     class="st2"
     d="m 132.1,61.6 c -0.1,0.6 -0.4,0.9 -1,0.9 h -1.5 c -0.6,0 -0.8,-0.3 -1,-0.9 l -2.5,-6.6 c -0.2,-0.5 -0.4,-1.3 -0.5,-1.9 h -0.2 c 0,0.6 -0.1,1.3 -0.1,1.9 l -1,7.4 h -2.6 l 1.6,-11.5 c 0.1,-0.6 0.4,-0.9 1,-0.9 h 1.5 c 0.6,0 0.8,0.3 1,0.9 l 2.4,6.4 c 0.2,0.6 0.5,1.3 0.6,2 h 0.2 c 0,-0.7 0,-1.3 0.1,-2 l 1,-7.3 h 2.6 l -1.6,11.6"
     id="path26" /><path
     style="fill:#393536"
     class="st2"
     d="m 137.4,56.9 c -1.9,-0.8 -2.3,-2 -2.1,-3.7 0.4,-2.8 1.9,-3.3 4.8,-3.3 1.3,0 2.8,0.1 4.1,0.5 l -0.3,1.9 c -1.1,0 -2.5,-0.1 -3.9,-0.1 -1.3,0 -1.8,0 -2,1.2 -0.1,0.8 0.1,1 1,1.4 l 2.2,0.9 c 2,0.8 2.4,1.8 2.1,3.7 -0.4,2.8 -1.6,3.5 -4.9,3.5 -0.9,0 -2.5,-0.1 -4.3,-0.5 l 0.3,-2 c 2.3,0.1 3.3,0.1 3.9,0.1 1.6,0 2.1,-0.2 2.3,-1.3 0.1,-0.8 -0.1,-1 -0.9,-1.3 l -2.3,-1"
     id="path28" /><path
     style="fill:#393536"
     class="st2"
     d="m 149.8,52.3 c -0.7,0 -1,0.2 -1,1 l -0.3,1.9 h 4.9 l -0.3,1.9 h -4.9 l -0.3,2.4 c -0.1,0.7 0.1,0.9 0.8,0.9 h 4.6 l -0.1,2 c -1.6,0.2 -3.6,0.2 -5.4,0.2 -2.1,0 -3,-1.2 -2.7,-3 l 1,-7.1 c 0.2,-1.5 1.2,-2.4 3,-2.4 2,0 4.1,0 5.7,0.2 l -0.3,2 h -4.7"
     id="path30" /><path
     style="fill:#393536"
     class="st2"
     d="m 160.1,52.3 c -0.7,0 -1,0.2 -1,1 l -0.3,1.9 h 4.9 l -0.3,1.9 h -4.9 l -0.3,2.4 c -0.1,0.7 0.1,0.9 0.8,0.9 h 4.6 l -0.1,2 c -1.6,0.2 -3.6,0.2 -5.4,0.2 -2.1,0 -3,-1.2 -2.7,-3 l 1,-7.1 c 0.2,-1.5 1.2,-2.4 3,-2.4 2,0 4.1,0 5.7,0.2 l -0.3,2 h -4.7"
     id="path32" /><path
     style="fill:#393536"
     class="st2"
     d="m 174.4,57.4 c 0.9,-0.1 1.4,-0.3 1.5,-1.2 0.1,-0.8 -0.3,-0.9 -1.4,-0.9 -1.4,0 -1.8,0.4 -2.1,2.2 z m 3.2,4.7 c -1.1,0.5 -2.7,0.6 -3.9,0.6 -3.5,0 -4.5,-1.6 -4.2,-4.8 0.4,-3.6 1.9,-4.5 5.1,-4.5 3.3,0 4.1,1.2 3.8,3.1 -0.3,1.7 -1.4,2.3 -3.6,2.5 l -2.6,0.2 c 0,1.3 0.7,1.5 1.8,1.5 0.9,0 2.4,-0.1 3.4,-0.2 l 0.2,1.6"
     id="path34" /><path
     style="fill:#393536"
     class="st2"
     d="m 181.1,59.8 c 0.6,0 1,0.3 0.9,1 l -0.1,0.9 c -0.1,0.6 -0.4,0.9 -1,0.9 h -0.7 c -0.7,0 -1,-0.3 -0.9,-1 l 0.1,-0.9 c 0.1,-0.6 0.4,-0.9 1,-0.9 h 0.7"
     id="path36" /><path
     style="fill:#393536"
     class="st2"
     d="m 189.8,61.8 c -0.2,0.4 -0.5,0.7 -1,0.7 h -2.5 c -0.5,0 -0.8,-0.4 -0.9,-0.8 l -1.8,-11.6 h 2.8 l 1,8.9 c 0.1,0.5 0.1,1 0.1,1.5 h 0.4 c 0.1,-0.5 0.3,-1 0.5,-1.5 l 3.5,-8.9 h 2.9 l -5,11.7"
     id="path38" /><path
     style="fill:#393536"
     class="st2"
     d="m 195.4,59.8 c 0.6,0 1,0.3 0.9,1 l -0.1,0.9 c -0.1,0.6 -0.4,0.9 -1,0.9 h -0.7 c -0.7,0 -1,-0.3 -0.9,-1 l 0.1,-0.9 c 0.1,-0.6 0.4,-0.9 1,-0.9 h 0.7"
     id="path40" /><polyline
     style="fill:#616364"
     class="st1"
     points="84.8,22.8 82.4,40.4 75.1,40.4 77.6,22.8 71.3,22.8 72,17.4 92,17.4 91.2,22.8 84.8,22.8 "
     id="polyline42" /></g>
</svg>