<?xml version="1.0" encoding="UTF-8" standalone="no"?>
<svg
   xmlns:dc="http://purl.org/dc/elements/1.1/"
   xmlns:cc="http://creativecommons.org/ns#"
   xmlns:rdf="http://www.w3.org/1999/02/22-rdf-syntax-ns#"
   xmlns:svg="http://www.w3.org/2000/svg"
   xmlns="http://www.w3.org/2000/svg"
   height="1080"
   width="1920"
   xml:space="preserve"
   viewBox="0 0 1920 1080"
   y="0px"
   x="0px"
   id="Ebene_1"
   version="1.1"><metadata
   id="metadata56"><rdf:RDF><cc:Work
       rdf:about=""><dc:format>image/svg+xml</dc:format><dc:type
         rdf:resource="http://purl.org/dc/dcmitype/StillImage" /><dc:title></dc:title><cc:license
         rdf:resource="http://creativecommons.org/licenses/by-sa/4.0/" /><dc:creator><cc:Agent><dc:title>L3D</dc:title></cc:Agent></dc:creator></cc:Work><cc:License
       rdf:about="http://creativecommons.org/licenses/by-sa/4.0/"><cc:permits
         rdf:resource="http://creativecommons.org/ns#Reproduction" /><cc:permits
         rdf:resource="http://creativecommons.org/ns#Distribution" /><cc:requires
         rdf:resource="http://creativecommons.org/ns#Notice" /><cc:requires
         rdf:resource="http://creativecommons.org/ns#Attribution" /><cc:permits
         rdf:resource="http://creativecommons.org/ns#DerivativeWorks" /><cc:requires
         rdf:resource="http://creativecommons.org/ns#ShareAlike" /></cc:License></rdf:RDF></metadata><defs
   id="defs54" />
<style
   id="style2"
   type="text/css">
	.st0{fill:#616364;}
	.st1{fill:#393536;}
	.st2{fill:url(#SVGID_1_);}
</style>
<path
   style="fill:#616364;stroke-width:5.39367247"
   id="path4"
   d="m 909.20902,456.27747 c -2.69684,17.79912 -1.07874,22.11405 10.78734,22.11405 11.32672,0 14.56292,-4.8543 17.25976,-24.81089 2.69683,-18.33849 1.07873,-22.65343 -9.70862,-22.65343 -11.86607,0.53937 -15.64165,4.85431 -18.33848,25.35027 z m 60.9485,0 c -4.85431,32.9014 -18.33849,44.22811 -51.23989,44.22811 -33.44077,0 -47.46432,-12.40545 -42.61002,-46.92495 4.31494,-33.44077 17.79912,-44.76748 51.77926,-44.76748 32.90141,0.53936 46.92495,13.48418 42.07065,47.46432"
   class="st0" />
<path
   style="fill:#616364;stroke-width:5.39367247"
   id="path6"
   d="m 1014.925,456.27747 c -2.6968,17.79912 -1.0787,22.11405 10.7873,22.11405 11.3268,0 14.563,-4.8543 17.2598,-24.81089 2.6968,-18.33849 1.0787,-22.65343 -9.7086,-22.65343 -11.8661,0.53937 -15.6417,4.85431 -18.3385,25.35027 z m 60.9485,0 c -4.8543,32.9014 -18.3385,44.22811 -51.2399,44.22811 -33.44076,0 -47.46431,-12.40545 -42.61,-46.92495 4.31494,-33.44077 17.79912,-44.76748 51.7793,-44.76748 32.9013,0.53936 46.9249,13.48418 42.0706,47.46432"
   class="st0" />
<path
   style="fill:#616364;stroke-width:5.39367247"
   id="path8"
   d="m 1120.1016,469.22228 c -1.0787,5.39367 0.5394,7.01178 7.5511,7.01178 h 7.5512 l 1.6181,21.57469 c -4.8543,2.69683 -17.7991,3.77557 -23.1928,3.77557 -18.3385,0 -28.0471,-9.70861 -26.429,-24.8109 l 14.0235,-100.32231 h 31.8227 l -12.9448,92.77117"
   class="st0" />
<path
   style="fill:#616364;stroke-width:5.39367247"
   id="path10"
   d="m 1179.432,478.39152 c 4.3149,0.53937 8.0905,0.53937 10.7873,0.53937 12.4055,-0.53937 16.1811,-4.31494 19.4173,-25.35026 2.1574,-16.18102 1.0787,-19.41722 -5.3937,-19.41722 -6.4724,0 -12.9448,3.2362 -19.4172,8.62987 z m 10.7873,-77.12951 c -0.5393,7.55114 -2.1574,14.56291 -5.3936,22.11405 8.6299,-8.09051 19.9566,-14.56291 32.362,-14.56291 21.0353,0 29.6652,13.48418 24.8109,46.38558 -3.7756,27.50773 -15.1023,45.30685 -48.543,45.30685 -12.9449,0 -37.7558,-2.69683 -48.5431,-7.01177 l 16.7204,-118.12143 h 31.8227 l -3.2363,25.88963"
   class="st0" />
<path
   style="fill:#616364;stroke-width:5.39367247"
   id="path12"
   d="m 1287.3055,456.27747 c -2.6969,17.79912 -1.0788,22.11405 10.7873,22.11405 11.3267,0 14.5629,-4.8543 17.2598,-24.81089 2.6968,-18.33849 1.0787,-22.65343 -9.7087,-22.65343 -11.866,0.53937 -15.6416,4.85431 -18.3384,25.35027 z m 60.9485,0 c -4.8543,32.9014 -18.3385,44.22811 -51.2399,44.22811 -33.4408,0 -47.4644,-12.40545 -42.61,-46.92495 4.3149,-33.44077 17.7991,-44.76748 51.7792,-44.76748 33.4408,0.53936 46.925,13.48418 42.0707,47.46432"
   class="st0" />
<polyline
   transform="matrix(5.3936727,0,0,5.3936727,399.50695,282.06184)"
   style="fill:#616364"
   id="polyline14"
   points="194.3,40.2 188.7,40.2 186.1,33.7 181.6,40.2 175.5,40.2 181.5,31.9 178.2,24 183.7,24 186.1,30.1   190.4,24 196.4,24 190.7,31.9 194.3,40.2 "
   class="st0" />
<path
   style="fill:#393536;stroke-width:5.39367247"
   id="path16"
   d="m 836.39444,579.79257 c 7.01177,0 9.70861,-1.6181 10.78734,-9.16924 1.07874,-6.47241 -1.07873,-7.55115 -8.09051,-7.55115 h -10.78734 l -2.15747,16.72039 c 0,0 10.24798,0 10.24798,0 z m -4.31494,29.12579 c 8.62988,0 11.32671,-1.6181 12.40545,-9.7086 1.07873,-7.5511 -1.07874,-9.70858 -8.62988,-9.70858 h -11.32671 l -2.69684,19.41718 z m -16.72039,-56.63352 c 7.55115,-0.53937 14.02355,-0.53937 24.27153,-0.53937 16.72039,0 23.73216,3.77557 21.57469,17.79912 -1.6181,9.16925 -4.8543,14.02355 -13.48418,14.56292 v 0.53937 c 10.24798,0.53936 12.94481,7.55118 11.32671,18.33848 -2.15747,13.4842 -8.62987,16.7204 -24.27152,16.7204 -13.48419,0 -20.49596,0 -28.58647,-0.5394 l 9.16924,-66.88152"
   class="st1" />
<path
   style="fill:#393536;stroke-width:5.39367247"
   id="path18"
   d="m 885.47686,586.26498 c -2.69684,17.25978 -0.53937,22.11408 9.70861,22.11408 10.24798,0 14.02355,-4.8543 16.72038,-23.19282 2.69684,-17.79912 0.53937,-22.11406 -9.70861,-22.11406 -10.24797,0 -14.02355,4.85431 -16.72038,23.1928 z m 41.53128,0 c -3.77557,26.42898 -12.40545,33.98018 -32.36204,33.98018 -20.49595,0 -28.58646,-8.0906 -24.81089,-35.59828 3.77557,-25.88963 11.86608,-33.98014 32.36203,-33.98014 20.49596,0.53937 28.58647,9.16924 24.8109,35.59824"
   class="st1" />
<path
   style="fill:#393536;stroke-width:5.39367247"
   id="path20"
   d="m 950.20093,608.37906 c 3.2362,0 6.47241,0 8.62988,0 11.32671,0 15.64165,-3.2362 18.33848,-23.19282 2.69684,-18.87785 0.53937,-22.11406 -10.78734,-22.11406 h -10.24798 z m -7.01177,-56.09422 c 7.01177,-0.53937 16.72038,-1.07873 23.73216,-1.07873 21.57469,0 29.6652,8.0905 25.88962,35.05887 -4.31493,29.12578 -12.40544,33.98018 -33.98013,33.98018 -8.09051,0 -17.25976,-0.5394 -25.35027,-1.0788 l 9.70862,-66.88152"
   class="st1" />
<path
   style="fill:#393536;stroke-width:5.39367247"
   id="path22"
   d="m 1026.2517,564.15092 c -3.7756,0 -5.3937,1.07873 -5.3937,5.39367 l -1.6181,10.24798 h 26.429 l -1.6181,10.24798 h -26.429 l -1.6181,12.94481 c -0.5393,3.7756 0.5394,4.8543 4.315,4.8543 h 24.8109 l -0.5394,10.7874 c -8.6299,1.0787 -19.4172,1.0787 -29.1258,1.0787 -11.3267,0 -16.18105,-6.4724 -14.5629,-16.181 l 5.3936,-38.29511 c 1.0788,-8.09051 6.4724,-12.94481 16.181,-12.94481 10.7874,0 22.1141,0 30.744,1.07873 l -1.6181,10.78735 h -25.3503"
   class="st1" />
<path
   style="fill:#393536;stroke-width:5.39367247"
   id="path24"
   d="m 1112.0111,614.31206 c -0.5394,3.2362 -2.1575,4.8543 -5.3937,4.8543 h -8.0905 c -3.2362,0 -4.3149,-1.6181 -5.3937,-4.8543 l -13.4841,-35.59822 c -1.0788,-2.69684 -2.1575,-7.01178 -2.6969,-10.24798 h -1.0787 c 0,3.2362 -0.5394,7.01177 -0.5394,10.24798 l -5.3937,39.91322 h -14.0235 l 8.6299,-62.02728 c 0.5393,-3.23621 2.1574,-4.85431 5.3936,-4.85431 h 8.0906 c 3.2362,0 4.3149,1.6181 5.3936,4.85431 l 12.9448,34.51948 c 1.0788,3.2362 2.6969,7.0118 3.2362,10.7874 h 1.0788 c 0,-3.7756 0,-7.0118 0.5393,-10.7874 l 5.3937,-39.37379 h 14.0236 l -8.6299,62.56659"
   class="st1" />
<path
   style="fill:#393536;stroke-width:5.39367247"
   id="path26"
   d="m 1140.5976,588.96181 c -10.248,-4.31493 -12.4055,-10.78734 -11.3268,-19.95659 2.1575,-15.10228 10.248,-17.79911 25.8897,-17.79911 7.0118,0 15.1023,0.53936 22.114,2.69683 l -1.6181,10.24798 c -5.933,0 -13.4841,-0.53937 -21.0353,-0.53937 -7.0118,0 -9.7086,0 -10.7873,6.47241 -0.5394,4.31494 0.5393,5.39367 5.3936,7.55114 l 11.8661,4.85431 c 10.7874,4.31493 12.9448,9.70865 11.3267,19.95655 -2.1574,15.1023 -8.6298,18.8779 -26.429,18.8779 -4.8543,0 -13.4841,-0.5394 -23.1928,-2.6968 l 1.6181,-10.7874 c 12.4055,0.5394 17.7992,0.5394 21.0354,0.5394 8.6298,0 11.3267,-1.0788 12.4054,-7.0118 0.5394,-4.3149 -0.5394,-5.3937 -4.8543,-7.0118 l -12.4054,-5.39365"
   class="st1" />
<path
   style="fill:#393536;stroke-width:5.39367247"
   id="path28"
   d="m 1207.4791,564.15092 c -3.7756,0 -5.3937,1.07873 -5.3937,5.39367 l -1.6181,10.24798 h 26.429 l -1.6181,10.24798 h -26.429 l -1.6181,12.94481 c -0.5393,3.7756 0.5394,4.8543 4.315,4.8543 h 24.8109 l -0.5394,10.7874 c -8.6299,1.0787 -19.4172,1.0787 -29.1258,1.0787 -11.3268,0 -16.1811,-6.4724 -14.563,-16.181 l 5.3937,-38.29511 c 1.0787,-8.09051 6.4724,-12.94481 16.181,-12.94481 10.7874,0 22.1141,0 30.744,1.07873 l -1.6181,10.78735 h -25.3503"
   class="st1" />
<path
   style="fill:#393536;stroke-width:5.39367247"
   id="path30"
   d="m 1263.0339,564.15092 c -3.7755,0 -5.3936,1.07873 -5.3936,5.39367 l -1.6181,10.24798 h 26.429 l -1.6182,10.24798 h -26.4289 l -1.6181,12.94481 c -0.5394,3.7756 0.5393,4.8543 4.3149,4.8543 h 24.8109 l -0.5394,10.7874 c -8.6299,1.0787 -19.4172,1.0787 -29.1258,1.0787 -11.3267,0 -16.181,-6.4724 -14.5629,-16.181 l 5.3936,-38.29511 c 1.0788,-8.09051 6.4724,-12.94481 16.1811,-12.94481 10.7873,0 22.114,0 30.7439,1.07873 l -1.6181,10.78735 h -25.3503"
   class="st1" />
<path
   style="fill:#393536;stroke-width:5.39367247"
   id="path32"
   d="m 1340.1634,591.65866 c 4.8544,-0.5394 7.5512,-1.61811 8.0906,-6.47242 0.5393,-4.31494 -1.6181,-4.8543 -7.5512,-4.8543 -7.5511,0 -9.7086,2.15747 -11.3267,11.86612 z m 17.2598,25.3503 c -5.933,2.6968 -14.5629,3.2362 -21.0353,3.2362 -18.8779,0 -24.2715,-8.6299 -22.6534,-25.8897 2.1574,-19.4172 10.2479,-24.2715 27.5077,-24.2715 17.7991,0 22.114,6.47241 20.4959,16.72038 -1.6181,9.16922 -7.5511,12.40542 -19.4172,13.48422 l -14.0235,1.0787 c 0,7.0118 3.7755,8.0905 9.7086,8.0905 4.8543,0 12.9448,-0.5394 18.3385,-1.0787 l 1.0787,8.6299"
   class="st1" />
<path
   style="fill:#393536;stroke-width:5.39367247"
   id="path34"
   d="m 1376.3011,604.60346 c 3.2362,0 5.3936,1.6181 4.8543,5.3937 l -0.5394,4.8543 c -0.5394,3.2362 -2.1575,4.8543 -5.3937,4.8543 h -3.7756 c -3.7755,0 -5.3936,-1.6181 -4.8543,-5.3937 l 0.5394,-4.8543 c 0.5394,-3.2362 2.1575,-4.8543 5.3937,-4.8543 h 3.7756"
   class="st1" />
<path
   style="fill:#393536;stroke-width:5.39367247"
   id="path36"
   d="m 1423.226,615.39076 c -1.0787,2.1575 -2.6968,3.7756 -5.3937,3.7756 h -13.4841 c -2.6969,0 -4.315,-2.1574 -4.8544,-4.3149 l -9.7086,-62.56662 h 15.1023 l 5.3937,48.00372 c 0.5394,2.6968 0.5394,5.3936 0.5394,8.0905 h 2.1574 c 0.5394,-2.6969 1.6181,-5.3937 2.6969,-8.0905 l 18.8778,-48.00372 h 15.6417 l -26.9684,63.10592"
   class="st1" />
<path
   style="fill:#393536;stroke-width:5.39367247"
   id="path38"
   d="m 1453.4306,604.60346 c 3.2362,0 5.3937,1.6181 4.8543,5.3937 l -0.5394,4.8543 c -0.5393,3.2362 -2.1574,4.8543 -5.3936,4.8543 h -3.7756 c -3.7756,0 -5.3937,-1.6181 -4.8543,-5.3937 l 0.5393,-4.8543 c 0.5394,-3.2362 2.1575,-4.8543 5.3937,-4.8543 h 3.7756"
   class="st1" />
<polyline
   transform="matrix(5.3936727,0,0,5.3936727,399.50695,282.06184)"
   style="fill:#616364"
   id="polyline40"
   points="84.8,22.8 82.4,40.4 75.1,40.4 77.6,22.8 71.3,22.8 72,17.4 92,17.4 91.2,22.8 84.8,22.8 "
   class="st0" />
<linearGradient
   gradientTransform="matrix(5.3936727,0,0,-5.3936727,399.50695,712.09936)"
   y2="9.5299997"
   x2="35.900002"
   y1="69.029999"
   x1="35.900002"
   gradientUnits="userSpaceOnUse"
   id="SVGID_1_">
	<stop
   id="stop42"
   style="stop-color:#E64F2D"
   offset="0" />
	<stop
   id="stop44"
   style="stop-color:#D74126"
   offset="0.5" />
	<stop
   id="stop46"
   style="stop-color:#9B160F"
   offset="1" />
</linearGradient>
<path
   style="fill:url(#SVGID_1_);stroke-width:5.39367247"
   id="path49"
   d="M 731.21782,419.60049 593.1398,339.77414 455.06178,419.60049 v 161.81018 0 l 137.53865,79.28699 v 0 0 0 0 L 730.67845,580.8713 v 0 0 -64.1847 0 0 l -28.58646,-16.18102 28.58646,-16.18102 v -0.53936 0 z m -28.58646,113.26713 v 31.2833 l -95.46801,55.01544 V 491.33634 l 33.98014,-19.95659 -28.58647,-16.72039 -85.75939,49.62179 28.58646,16.72039 22.65343,-12.94482 V 619.16636 L 483.64824,564.69029 V 436.32088 l 109.49156,-63.10597 109.49156,63.10597 v 31.2833 l -57.7123,33.44077 v 32.9014 l 29.12583,-16.72038 z"
   class="st2" />
<text
   id="text868"
   y="740.11658"
   x="572.94641"
   style="font-style:normal;font-weight:normal;font-size:40px;line-height:1.25;font-family:sans-serif;letter-spacing:0px;word-spacing:0px;fill:#000000;fill-opacity:1;stroke:none"
   xml:space="preserve"><tspan
     y="775.5072"
     x="572.94641"
     id="tspan866" /></text>
</svg>