<?xml version="1.0" encoding="UTF-8" standalone="no"?>
<svg
   xmlns:dc="http://purl.org/dc/elements/1.1/"
   xmlns:cc="http://creativecommons.org/ns#"
   xmlns:rdf="http://www.w3.org/1999/02/22-rdf-syntax-ns#"
   xmlns:svg="http://www.w3.org/2000/svg"
   xmlns="http://www.w3.org/2000/svg"
   xmlns:xlink="http://www.w3.org/1999/xlink"
   height="1080"
   width="1920"
   version="1.1"
   id="Ebene_1"
   x="0px"
   y="0px"
   viewBox="0 0 1920 1080"
   xml:space="preserve"><metadata
   id="metadata56"><rdf:RDF><cc:Work
       rdf:about=""><dc:format>image/svg+xml</dc:format><dc:type
         rdf:resource="http://purl.org/dc/dcmitype/StillImage" /><dc:title></dc:title></cc:Work></rdf:RDF></metadata><defs
   id="defs54"><linearGradient
     y2="9.5299997"
     x2="35.900002"
     y1="69.029999"
     x1="35.900002"
     gradientTransform="matrix(6.075918,0,0,-6.075918,333.83278,785.43659)"
     gradientUnits="userSpaceOnUse"
     id="linearGradient35"
     xlink:href="#SVGID_1_" /></defs>
<style
   type="text/css"
   id="style2">
	.st0{fill:#616364;}
	.st1{fill:#393536;}
	.st2{fill:url(#SVGID_1_);}
</style>
<path
   style="fill:#616364;stroke-width:1.92260087"
   class="st0"
   d="m 1587.9004,950.94533 c -0.9612,6.34459 -0.3844,7.88267 3.8452,7.88267 4.0375,0 5.1911,-1.73035 6.1524,-8.84397 0.9612,-6.53684 0.3845,-8.07492 -3.4607,-8.07492 -4.2297,0.19226 -5.5756,1.73034 -6.5369,9.03622 z m 21.7254,0 c -1.7303,11.72786 -6.5368,15.76532 -18.2647,15.76532 -11.9201,0 -16.9189,-4.42198 -15.1885,-16.72662 1.5381,-11.92012 6.3446,-15.95759 18.4569,-15.95759 11.7279,0.19226 16.7267,4.8065 14.9963,16.91889"
   id="path4" />
<path
   style="fill:#616364;stroke-width:1.92260087"
   class="st0"
   d="m 1625.5834,950.94533 c -0.9613,6.34459 -0.3845,7.88267 3.8452,7.88267 4.0374,0 5.1911,-1.73035 6.1523,-8.84397 0.9613,-6.53684 0.3845,-8.07492 -3.4606,-8.07492 -4.2298,0.19226 -5.5756,1.73034 -6.5369,9.03622 z m 21.7254,0 c -1.7303,11.72786 -6.5368,15.76532 -18.2647,15.76532 -11.9201,0 -16.9189,-4.42198 -15.1885,-16.72662 1.538,-11.92012 6.3445,-15.95759 18.4569,-15.95759 11.7279,0.19226 16.7267,4.8065 14.9963,16.91889"
   id="path6" />
<path
   style="fill:#616364;stroke-width:1.92260087"
   class="st0"
   d="m 1663.0741,955.55957 c -0.3845,1.9226 0.1923,2.49938 2.6916,2.49938 h 2.6917 l 0.5768,7.6904 c -1.7304,0.9613 -6.3446,1.34582 -8.2672,1.34582 -6.5369,0 -9.9975,-3.46068 -9.4208,-8.84396 l 4.9988,-35.76037 h 11.3434 l -4.6143,33.06873"
   id="path8" />
<path
   style="fill:#616364;stroke-width:1.92260087"
   class="st0"
   d="m 1684.2227,958.828 c 1.5381,0.19225 2.8839,0.19225 3.8452,0.19225 4.422,-0.19225 5.7678,-1.53808 6.9214,-9.03622 0.769,-5.7678 0.3845,-6.92136 -1.9226,-6.92136 -2.3071,0 -4.6142,1.15356 -6.9213,3.07616 z m 3.8452,-27.4932 c -0.1922,2.69164 -0.769,5.19103 -1.9225,7.88267 3.0761,-2.88391 7.1136,-5.19103 11.5356,-5.19103 7.4981,0 10.5742,4.8065 8.8439,16.53437 -1.3458,9.80527 -5.3833,16.14984 -17.3034,16.14984 -4.6142,0 -13.4582,-0.9613 -17.3034,-2.49938 l 5.9601,-42.10496 h 11.3433 l -1.1536,9.22849"
   id="path10" />
<path
   style="fill:#616364;stroke-width:1.92260087"
   class="st0"
   d="m 1722.6747,950.94533 c -0.9612,6.34459 -0.3844,7.88267 3.8452,7.88267 4.0375,0 5.1911,-1.73035 6.1523,-8.84397 0.9613,-6.53684 0.3846,-8.07492 -3.4606,-8.07492 -4.2297,0.19226 -5.5756,1.73034 -6.5369,9.03622 z m 21.7254,0 c -1.7303,11.72786 -6.5368,15.76532 -18.2646,15.76532 -11.9202,0 -16.919,-4.42198 -15.1886,-16.72662 1.5381,-11.92012 6.3445,-15.95759 18.457,-15.95759 11.9201,0.19226 16.7266,4.8065 14.9962,16.91889"
   id="path12" />
<polyline
   transform="matrix(1.9226007,0,0,1.9226007,1406.2147,888.84533)"
   style="fill:#616364"
   class="st0"
   points="194.3,40.2 188.7,40.2 186.1,33.7 181.6,40.2 175.5,40.2 181.5,31.9 178.2,24 183.7,24 186.1,30.1   190.4,24 196.4,24 190.7,31.9 194.3,40.2 "
   id="polyline14" />
<path
   style="fill:#393536;stroke-width:1.92260087"
   class="st1"
   d="m 1561.9453,994.97284 c 2.4994,0 3.4607,-0.5768 3.8453,-3.2684 0.3845,-2.3071 -0.3846,-2.6917 -2.884,-2.6917 h -3.8452 l -0.769,5.9601 c 0,0 3.6529,0 3.6529,0 z m -1.538,10.38206 c 3.0761,0 4.0374,-0.5768 4.4219,-3.4607 0.3846,-2.69156 -0.3845,-3.46066 -3.0761,-3.46066 h -4.0375 l -0.9612,6.92136 z m -5.9601,-20.18726 c 2.6916,-0.1923 4.9988,-0.1923 8.6517,-0.1923 5.96,0 8.4595,1.3459 7.6904,6.3446 -0.5768,3.2684 -1.7304,4.9988 -4.8065,5.191 v 0.1923 c 3.6529,0.1922 4.6143,2.6916 4.0375,6.53676 -0.7691,4.8066 -3.0762,5.9601 -8.6517,5.9601 -4.8066,0 -7.3059,0 -10.1899,-0.1923 l 3.2685,-23.84016"
   id="path16" />
<path
   style="fill:#393536;stroke-width:1.92260087"
   class="st1"
   d="m 1579.441,997.28004 c -0.9613,6.15226 -0.1923,7.88256 3.4606,7.88256 3.653,0 4.9988,-1.7303 5.9601,-8.26716 0.9613,-6.3446 0.1923,-7.8827 -3.4606,-7.8827 -3.653,0 -4.9988,1.7304 -5.9601,8.2673 z m 14.804,0 c -1.3458,9.42066 -4.422,12.11226 -11.5356,12.11226 -7.3059,0 -10.1898,-2.8838 -8.844,-12.68906 1.3459,-9.2285 4.2297,-12.1124 11.5357,-12.1124 7.3058,0.1923 10.1898,3.2684 8.8439,12.6892"
   id="path18" />
<path
   style="fill:#393536;stroke-width:1.92260087"
   class="st1"
   d="m 1602.5122,1005.1626 c 1.1535,0 2.3071,0 3.0762,0 4.0374,0 5.5755,-1.1535 6.5368,-8.26716 0.9613,-6.729 0.1923,-7.8827 -3.8451,-7.8827 h -3.653 z m -2.4994,-19.99496 c 2.4994,-0.1923 5.9601,-0.3845 8.4595,-0.3845 7.6904,0 10.5742,2.8839 9.2285,12.4969 -1.5381,10.38196 -4.422,12.11226 -12.1124,12.11226 -2.884,0 -6.1524,-0.1922 -9.0362,-0.3845 l 3.4606,-23.84016"
   id="path20" />
<path
   style="fill:#393536;stroke-width:1.92260087"
   class="st1"
   d="m 1629.6208,989.39734 c -1.3457,0 -1.9225,0.3845 -1.9225,1.9226 l -0.5768,3.6529 h 9.4207 l -0.5768,3.653 h -9.4207 l -0.5768,4.61416 c -0.1922,1.3459 0.1923,1.7304 1.5381,1.7304 h 8.844 l -0.1923,3.8451 c -3.0761,0.3846 -6.9213,0.3846 -10.382,0.3846 -4.0375,0 -5.7678,-2.3072 -5.1911,-5.7678 l 1.9226,-13.65046 c 0.3846,-2.8839 2.3072,-4.6142 5.7679,-4.6142 3.8452,0 7.8826,0 10.9588,0.3845 l -0.5768,3.8452 h -9.0363"
   id="path22" />
<path
   style="fill:#393536;stroke-width:1.92260087"
   class="st1"
   d="m 1660.1902,1007.2775 c -0.1922,1.1535 -0.769,1.7303 -1.9226,1.7303 h -2.8838 c -1.1537,0 -1.5381,-0.5768 -1.9227,-1.7303 l -4.8065,-12.68916 c -0.3845,-0.9613 -0.769,-2.4994 -0.9613,-3.6529 h -0.3845 c 0,1.1535 -0.1922,2.4993 -0.1922,3.6529 l -1.9227,14.22716 h -4.9987 l 3.0761,-22.10976 c 0.1923,-1.1536 0.7691,-1.7304 1.9226,-1.7304 h 2.884 c 1.1535,0 1.538,0.5768 1.9226,1.7304 l 4.6142,12.3046 c 0.3845,1.15356 0.9613,2.49936 1.1535,3.84516 h 0.3846 c 0,-1.3458 0,-2.4994 0.1922,-3.84516 l 1.9226,-14.035 h 4.9988 l -3.0762,22.30216"
   id="path24" />
<path
   style="fill:#393536;stroke-width:1.92260087"
   class="st1"
   d="m 1670.38,998.24134 c -3.653,-1.5381 -4.422,-3.8453 -4.0374,-7.1137 0.769,-5.3832 3.6529,-6.3445 9.2284,-6.3445 2.4994,0 5.3833,0.1922 7.8827,0.9613 l -0.5768,3.6529 c -2.1148,0 -4.8065,-0.1922 -7.4981,-0.1922 -2.4994,0 -3.4607,0 -3.8452,2.307 -0.1923,1.5381 0.1922,1.9226 1.9226,2.6917 l 4.2297,1.7303 c 3.8452,1.5381 4.6142,3.4607 4.0375,7.11366 -0.7691,5.3832 -3.0762,6.729 -9.4208,6.729 -1.7303,0 -4.8065,-0.1922 -8.2672,-0.9613 l 0.5768,-3.8451 c 4.422,0.1922 6.3446,0.1922 7.4981,0.1922 3.0762,0 4.0376,-0.3845 4.422,-2.4993 0.1923,-1.5381 -0.1922,-1.9227 -1.7303,-2.4994 l -4.422,-1.92256"
   id="path26" />
<path
   style="fill:#393536;stroke-width:1.92260087"
   class="st1"
   d="m 1694.2203,989.39734 c -1.3459,0 -1.9226,0.3845 -1.9226,1.9226 l -0.5768,3.6529 h 9.4207 l -0.5767,3.653 h -9.4208 l -0.5767,4.61416 c -0.1924,1.3459 0.1922,1.7304 1.538,1.7304 h 8.844 l -0.1923,3.8451 c -3.0761,0.3846 -6.9214,0.3846 -10.3821,0.3846 -4.0374,0 -5.7677,-2.3072 -5.1909,-5.7678 l 1.9225,-13.65046 c 0.3845,-2.8839 2.3072,-4.6142 5.7678,-4.6142 3.8452,0 7.8827,0 10.9589,0.3845 l -0.5768,3.8452 h -9.0362"
   id="path28" />
<path
   style="fill:#393536;stroke-width:1.92260087"
   class="st1"
   d="m 1714.0231,989.39734 c -1.3459,0 -1.9227,0.3845 -1.9227,1.9226 l -0.5767,3.6529 h 9.4207 l -0.5768,3.653 h -9.4207 l -0.5768,4.61416 c -0.1923,1.3459 0.1923,1.7304 1.5381,1.7304 h 8.844 l -0.1923,3.8451 c -3.0762,0.3846 -6.9214,0.3846 -10.3821,0.3846 -4.0374,0 -5.7678,-2.3072 -5.191,-5.7678 l 1.9227,-13.65046 c 0.3844,-2.8839 2.307,-4.6142 5.7677,-4.6142 3.8452,0 7.8827,0 10.9588,0.3845 l -0.5767,3.8452 h -9.0362"
   id="path30" />
<path
   style="fill:#393536;stroke-width:1.92260087"
   class="st1"
   d="m 1741.5163,999.20264 c 1.7303,-0.1923 2.6916,-0.5768 2.8838,-2.3072 0.1923,-1.538 -0.5767,-1.7303 -2.6916,-1.7303 -2.6917,0 -3.4607,0.769 -4.0374,4.2297 z m 6.1523,9.03616 c -2.1149,0.9613 -5.1911,1.1535 -7.4982,1.1535 -6.7291,0 -8.6517,-3.0761 -8.0749,-9.2284 0.769,-6.92136 3.6529,-8.65176 9.8052,-8.65176 6.3446,0 7.8827,2.3072 7.306,5.9601 -0.5768,3.26836 -2.6917,4.42196 -6.9214,4.80646 l -4.9988,0.3846 c 0,2.4993 1.3458,2.8839 3.4607,2.8839 1.7303,0 4.6142,-0.1923 6.5368,-0.3846 l 0.3846,3.0762"
   id="path32" />
<path
   style="fill:#393536;stroke-width:1.92260087"
   class="st1"
   d="m 1754.3976,1003.8168 c 1.1536,0 1.9227,0.5768 1.7304,1.9226 l -0.1923,1.7303 c -0.1922,1.1536 -0.769,1.7304 -1.9225,1.7304 h -1.3459 c -1.3458,0 -1.9226,-0.5768 -1.7303,-1.9226 l 0.1922,-1.7303 c 0.1923,-1.1536 0.7691,-1.7304 1.9227,-1.7304 h 1.3457"
   id="path34" />
<path
   style="fill:#393536;stroke-width:1.92260087"
   class="st1"
   d="m 1771.1243,1007.662 c -0.3845,0.769 -0.9613,1.3458 -1.9226,1.3458 h -4.8065 c -0.9613,0 -1.5381,-0.769 -1.7304,-1.5381 l -3.4606,-22.30206 h 5.3833 l 1.9225,17.11106 c 0.1923,0.9613 0.1923,1.9226 0.1923,2.8839 h 0.7691 c 0.1922,-0.9613 0.5767,-1.9226 0.9613,-2.8839 l 6.729,-17.11106 h 5.5756 l -9.613,22.49436"
   id="path36" />
<path
   style="fill:#393536;stroke-width:1.92260087"
   class="st1"
   d="m 1781.8909,1003.8168 c 1.1535,0 1.9226,0.5768 1.7303,1.9226 l -0.1923,1.7303 c -0.1922,1.1536 -0.769,1.7304 -1.9226,1.7304 h -1.3458 c -1.3458,0 -1.9226,-0.5768 -1.7303,-1.9226 l 0.1922,-1.7303 c 0.1923,-1.1536 0.7691,-1.7304 1.9226,-1.7304 h 1.3459"
   id="path38" />
<polyline
   transform="matrix(1.9226007,0,0,1.9226007,1406.2147,888.84533)"
   style="fill:#616364"
   class="st0"
   points="84.8,22.8 82.4,40.4 75.1,40.4 77.6,22.8 71.3,22.8 72,17.4 92,17.4 91.2,22.8 84.8,22.8 "
   id="polyline40" />
<linearGradient
   id="SVGID_1_"
   gradientUnits="userSpaceOnUse"
   x1="35.900002"
   y1="69.029999"
   x2="35.900002"
   y2="9.5299997"
   gradientTransform="matrix(1.9226007,0,0,-1.9226007,1406.2146,1042.1343)">
	<stop
   offset="0"
   style="stop-color:#E64F2D"
   id="stop42" />
	<stop
   offset="0.5"
   style="stop-color:#D74126"
   id="stop44" />
	<stop
   offset="1"
   style="stop-color:#9B160F"
   id="stop46" />
</linearGradient>
<path
   style="fill:url(#SVGID_1_);stroke-width:1.92260087"
   class="st2"
   d="m 1524.4546,937.87164 -49.2186,-28.45449 -49.2185,28.45449 v 57.678 0 l 49.0263,28.26226 v 0 0 0 0 l 49.2186,-28.45446 v 0 0 -22.87898 0 0 l -10.1898,-5.76781 10.1898,-5.7678 v -0.19226 0 z m -10.1897,40.3746 v 11.1511 l -34.0301,19.61046 v -45.56556 l 12.1124,-7.11363 -10.1898,-5.96006 -30.5693,17.68793 10.1897,5.96006 8.0749,-4.61424 v 39.6055 l -33.6454,-19.41816 v -45.75793 l 39.0287,-22.49443 39.0289,22.49443 v 11.15108 l -20.5719,11.92013 v 11.72782 l 10.3821,-5.96002 z"
   id="path49" />
<path
   id="path33"
   d="m 707.50193,455.93948 -155.54358,-89.9236 -155.54326,89.9236 v 182.27747 0 l 154.93586,89.31609 v 0 0 0 0 l 155.54358,-89.92348 v 0 0 -72.30354 0 0 l -32.20241,-18.22777 32.20241,-18.22775 v -0.6076 0 z m -32.2021,127.59423 v 35.24038 L 567.75586,680.74825 V 536.74922 l 38.27834,-22.48093 -32.20242,-18.83533 -96.60694,55.89846 32.2021,18.83533 25.51879,-14.58219 V 680.74825 L 428.61751,619.38181 V 474.77485 l 123.34084,-71.08826 123.34148,71.08826 v 35.24031 l -65.01255,37.6707 v 37.06297 l 32.81013,-18.83521 z"
   class="st2"
   style="fill:url(#linearGradient35);stroke-width:6.07591915" /></svg>