<?xml version="1.0" encoding="UTF-8" standalone="no"?>
<!-- Created with Inkscape (http://www.inkscape.org/) -->

<svg
   xmlns:dc="http://purl.org/dc/elements/1.1/"
   xmlns:cc="http://creativecommons.org/ns#"
   xmlns:rdf="http://www.w3.org/1999/02/22-rdf-syntax-ns#"
   xmlns:svg="http://www.w3.org/2000/svg"
   xmlns="http://www.w3.org/2000/svg"
   xmlns:xlink="http://www.w3.org/1999/xlink"
   xmlns:sodipodi="http://sodipodi.sourceforge.net/DTD/sodipodi-0.dtd"
   xmlns:inkscape="http://www.inkscape.org/namespaces/inkscape"
   width="1920"
   height="1080"
   viewBox="0 0 508 285.75"
   version="1.1"
   id="svg8"
   inkscape:version="0.92.3 (2405546, 2018-03-11)"
   sodipodi:docname="toolbox_tdot.svg">
  <defs
     id="defs2">
    <clipPath
       id="clipPath22"
       clipPathUnits="userSpaceOnUse">
      <path
         inkscape:connector-curvature="0"
         id="path20"
         d="M 1096.89,0 1096.5,0.230469 1096.11,0 1095.72,0.679688 1.85156,631.711 H 0 L 0.351563,1914.36 1097.08,2546.63 2193.01,1914.41 v -505.07 h -2.11 l 2.1,-3.65 -226.11,-130.44 226.11,-130.44 -0.06,-0.11 0.06,-0.03 V 634.621 h -1.05 l 1.06,-1.84 L 1097.28,0.679688 1096.89,0 m 108.99,1345.9 v 0 l 1.79,-1016.521 758.24,434.57 v 249.691 l -226.26,130.52 -230.51,-132.97 v 262.17 l 456.77,263.51 v 246.37 L 1096.72,2284.65 227.102,1782.99 V 763.949 l 751.679,-433.23 v 883.841 l -181.152,-104.77 -227.113,131.02 679.044,392.83 227.21,-131.07 -270.89,-156.67" />
    </clipPath>
    <linearGradient
       id="linearGradient30"
       spreadMethod="pad"
       gradientTransform="matrix(1e-7,-1508.62,-1508.62,-1e-7,1096.51,1639.74)"
       gradientUnits="userSpaceOnUse"
       y2="0"
       x2="1"
       y1="0"
       x1="0">
      <stop
         id="stop24"
         offset="0"
         style="stop-opacity:1;stop-color:#f14531" />
      <stop
         id="stop26"
         offset="0.330076"
         style="stop-opacity:1;stop-color:#d3362e" />
      <stop
         id="stop28"
         offset="1"
         style="stop-opacity:1;stop-color:#961a20" />
    </linearGradient>
    <linearGradient
       spreadMethod="pad"
       y2="0"
       x2="1"
       y1="0"
       x1="0"
       gradientTransform="matrix(1e-7,-1508.62,-1508.62,-1e-7,1096.51,1639.74)"
       gradientUnits="userSpaceOnUse"
       id="linearGradient1444"
       xlink:href="#linearGradient30"
       inkscape:collect="always" />
    <clipPath
       id="clipPath22-3"
       clipPathUnits="userSpaceOnUse">
      <path
         inkscape:connector-curvature="0"
         id="path20-5"
         d="M 1096.89,0 1096.5,0.230469 1096.11,0 1095.72,0.679688 1.85156,631.711 H 0 L 0.351563,1914.36 1097.08,2546.63 2193.01,1914.41 v -505.07 h -2.11 l 2.1,-3.65 -226.11,-130.44 226.11,-130.44 -0.06,-0.11 0.06,-0.03 V 634.621 h -1.05 l 1.06,-1.84 L 1097.28,0.679688 1096.89,0 m 108.99,1345.9 v 0 l 1.79,-1016.521 758.24,434.57 v 249.691 l -226.26,130.52 -230.51,-132.97 v 262.17 l 456.77,263.51 v 246.37 L 1096.72,2284.65 227.102,1782.99 V 763.949 l 751.679,-433.23 v 883.841 l -181.152,-104.77 -227.113,131.02 679.044,392.83 227.21,-131.07 -270.89,-156.67" />
    </clipPath>
  </defs>
  <sodipodi:namedview
     id="base"
     pagecolor="#ffffff"
     bordercolor="#666666"
     borderopacity="1.0"
     inkscape:pageopacity="0.0"
     inkscape:pageshadow="2"
     inkscape:zoom="0.49497475"
     inkscape:cx="957.36923"
     inkscape:cy="637.21586"
     inkscape:document-units="mm"
     inkscape:current-layer="layer1"
     showgrid="false"
     units="px"
     inkscape:pagecheckerboard="true"
     inkscape:window-width="1869"
     inkscape:window-height="1025"
     inkscape:window-x="51"
     inkscape:window-y="27"
     inkscape:window-maximized="1"
     showguides="true"
     inkscape:guide-bbox="true"
     inkscape:measure-start="0,0"
     inkscape:measure-end="0,0">
    <sodipodi:guide
       position="503.21841,-1.887591"
       orientation="1,0"
       id="guide2208"
       inkscape:locked="false" />
    <sodipodi:guide
       position="4.4884673,279.13542"
       orientation="0,1"
       id="guide2210"
       inkscape:locked="false" />
    <sodipodi:guide
       position="11.893494,286.52964"
       orientation="1,0"
       id="guide2212"
       inkscape:locked="false" />
    <sodipodi:guide
       position="419.31734,295.76637"
       orientation="1,0"
       id="guide2214"
       inkscape:locked="false" />
    <sodipodi:guide
       position="509.08668,4.7601377"
       orientation="0,1"
       id="guide2216"
       inkscape:locked="false" />
    <sodipodi:guide
       position="20.112032,43.498116"
       orientation="0,1"
       id="guide2338"
       inkscape:locked="false" />
  </sodipodi:namedview>
  <metadata
     id="metadata5">
    <rdf:RDF>
      <cc:Work
         rdf:about="">
        <dc:format>image/svg+xml</dc:format>
        <dc:type
           rdf:resource="http://purl.org/dc/dcmitype/StillImage" />
        <dc:title></dc:title>
      </cc:Work>
    </rdf:RDF>
  </metadata>
  <g
     inkscape:label="Ebene 1"
     inkscape:groupmode="layer"
     id="layer1"
     transform="translate(0,-11.24997)"
     style="display:inline">
    <rect
       style="opacity:1;fill:#000000;fill-opacity:1;stroke:none;stroke-width:1.39310312;stroke-linecap:round;stroke-linejoin:round;stroke-miterlimit:4;stroke-dasharray:none;stroke-dashoffset:0;stroke-opacity:1"
       id="rect1191"
       width="508"
       height="285.75"
       x="-7.4606987e-14"
       y="11.24997"
       rx="0"
       ry="0"
       inkscape:export-xdpi="38.099998"
       inkscape:export-ydpi="38.099998" />
    <g
       id="g16"
       transform="matrix(0.01912816,0,0,-0.01912817,439.30652,66.576922)">
      <g
         clip-path="url(#clipPath22)"
         id="g18">
        <path
           inkscape:connector-curvature="0"
           id="path32"
           style="fill:url(#linearGradient1444);fill-opacity:1;fill-rule:nonzero;stroke:none"
           d="M 1096.89,0 1096.5,0.230469 1096.11,0 1095.72,0.679688 1.85156,631.711 H 0 L 0.351563,1914.36 1097.08,2546.63 2193.01,1914.41 v -505.07 h -2.11 l 2.1,-3.65 -226.11,-130.44 226.11,-130.44 -0.06,-0.11 0.06,-0.03 V 634.621 h -1.05 l 1.06,-1.84 L 1097.28,0.679688 1096.89,0 m 108.99,1345.9 v 0 l 1.79,-1016.521 758.24,434.57 v 249.691 l -226.26,130.52 -230.51,-132.97 v 262.17 l 456.77,263.51 v 246.37 L 1096.72,2284.65 227.102,1782.99 V 763.949 l 751.679,-433.23 v 883.841 l -181.152,-104.77 -227.113,131.02 679.044,392.83 227.21,-131.07 -270.89,-156.67" />
      </g>
    </g>
    <g
       id="g2243"
       transform="matrix(0.74734588,0,0,0.74734588,-2.1988316,4.3354824)">
      <g
         transform="matrix(2.6382789,0,0,2.6382789,145.62295,-1004.0736)"
         id="g2028">
        <path
           inkscape:connector-curvature="0"
           id="path46"
           style="fill:#b3b3b3;fill-opacity:1;fill-rule:nonzero;stroke:none;stroke-width:0.0059577"
           d="m 165.88655,426.13142 c 0.34441,0 0.46851,-0.0872 0.51444,-0.43169 0.0459,-0.29873 -0.0459,-0.36301 -0.37664,-0.36301 h -0.50986 l -0.11022,0.7947 z m -0.18833,1.38272 c 0.40423,0 0.52815,-0.0874 0.58332,-0.45492 0.0505,-0.36277 -0.0413,-0.44993 -0.4134,-0.45469 h -0.53292 l -0.12857,0.90961 z m -0.79934,-2.67344 c 0.35835,-0.0321 0.65237,-0.0367 1.15299,-0.0367 0.79011,0 1.11165,0.18839 1.02431,0.85428 -0.0643,0.44099 -0.2342,0.66149 -0.64302,0.69836 l -0.005,0.0274 c 0.48227,0.0369 0.61543,0.35823 0.54197,0.86345 -0.0964,0.64778 -0.40423,0.79922 -1.15299,0.79922 -0.62932,0 -0.95991,-0.004 -1.36426,-0.0366 l 0.44558,-3.16947" />
        <path
           inkscape:connector-curvature="0"
           id="path48"
           style="fill:#b3b3b3;fill-opacity:1;fill-rule:nonzero;stroke:none;stroke-width:0.0059577"
           d="m 168.22357,426.45307 c -0.11951,0.82663 -0.0229,1.05184 0.45017,1.05184 0.48233,0 0.65224,-0.23419 0.78087,-1.10711 0.12398,-0.84981 0.0137,-1.05184 -0.45475,-1.05184 -0.48692,0 -0.64766,0.2252 -0.77629,1.10711 z m 1.9614,0 c -0.17004,1.25863 -0.57873,1.61686 -1.52506,1.61686 -0.96455,0 -1.34119,-0.39511 -1.17128,-1.67213 0.17003,-1.22629 0.56503,-1.61694 1.53429,-1.61694 0.94155,0 1.33655,0.40436 1.16205,1.67221" />
        <path
           inkscape:connector-curvature="0"
           id="path50"
           style="fill:#b3b3b3;fill-opacity:1;fill-rule:nonzero;stroke:none;stroke-width:0.0059577"
           d="m 171.26331,427.49567 c 0.15174,0 0.29872,0.005 0.41805,0.005 0.54662,0 0.74865,-0.1515 0.87745,-1.1024 0.12857,-0.89094 0.0274,-1.05184 -0.50998,-1.05184 l -0.48227,0.005 z m -0.32607,-2.65497 c 0.33084,-0.023 0.79917,-0.0414 1.13453,-0.0414 1.01519,0 1.40113,0.38141 1.22198,1.65373 -0.19309,1.36873 -0.58796,1.59846 -1.60315,1.59846 -0.39041,0 -0.82229,-0.0185 -1.19881,-0.0414 l 0.44545,-3.16947" />
        <path
           inkscape:connector-curvature="0"
           id="path52"
           style="fill:#b3b3b3;fill-opacity:1;fill-rule:nonzero;stroke:none;stroke-width:0.0059577"
           d="m 174.88196,425.39202 c -0.17462,0 -0.24337,0.0596 -0.26655,0.24789 l -0.0687,0.47781 h 1.24939 l -0.0643,0.49604 h -1.25409 l -0.0825,0.6109 c -0.0231,0.16991 0.0322,0.23414 0.20656,0.23414 h 1.1714 l -0.0184,0.51921 c -0.40435,0.0459 -0.92779,0.0459 -1.37349,0.0459 -0.52815,0 -0.75782,-0.30324 -0.69806,-0.76236 l 0.25261,-1.80993 c 0.0551,-0.38571 0.31694,-0.6246 0.75787,-0.6246 0.50528,0 1.0426,0.004 1.46065,0.0506 l -0.0872,0.51446 h -1.18516" />
        <path
           inkscape:connector-curvature="0"
           id="path54"
           style="fill:#b3b3b3;fill-opacity:1;fill-rule:nonzero;stroke:none;stroke-width:0.0059577"
           d="m 178.92342,427.77121 c -0.0232,0.16544 -0.0967,0.23896 -0.26184,0.23896 h -0.39041 c -0.15168,0 -0.20226,-0.0827 -0.26184,-0.22048 l -0.62931,-1.69038 c -0.0506,-0.13328 -0.10563,-0.32165 -0.13774,-0.47757 h -0.0461 c -0.004,0.16513 -0.0137,0.32614 -0.0366,0.49598 l -0.26178,1.89245 h -0.66619 l 0.41352,-2.93058 c 0.0229,-0.16538 0.10092,-0.23889 0.26637,-0.23889 h 0.38588 c 0.14697,0 0.20202,0.0827 0.25707,0.22048 l 0.61091,1.63527 c 0.0553,0.14226 0.11957,0.32612 0.16544,0.51451 h 0.055 c 0,-0.18386 0.009,-0.34006 0.0324,-0.51 l 0.25267,-1.86026 h 0.66589 l -0.41329,2.93051" />
        <path
           inkscape:connector-curvature="0"
           id="path56"
           style="fill:#b3b3b3;fill-opacity:1;fill-rule:nonzero;stroke:none;stroke-width:0.0059577"
           d="m 180.27743,426.56317 c -0.47757,-0.19756 -0.59714,-0.5005 -0.54209,-0.93249 0.0966,-0.71176 0.49151,-0.84982 1.23122,-0.84982 0.32612,0 0.70277,0.0322 1.03336,0.12881 l -0.069,0.47311 c -0.27554,-0.009 -0.64302,-0.014 -0.98284,-0.014 -0.3353,-0.004 -0.46858,0.005 -0.51445,0.3032 -0.0321,0.21601 0.0229,0.26183 0.25261,0.34929 l 0.56955,0.22051 c 0.50075,0.1973 0.60638,0.46833 0.54656,0.94148 -0.0916,0.71201 -0.40882,0.88662 -1.24939,0.88662 -0.22049,0 -0.63378,-0.0232 -1.08847,-0.12404 l 0.0735,-0.5008 c 0.5832,0.0137 0.84981,0.0229 0.98755,0.0229 0.41781,0 0.54185,-0.0503 0.58326,-0.32611 0.0276,-0.21574 -0.0322,-0.26184 -0.22973,-0.33531 l -0.60167,-0.24343" />
        <path
           inkscape:connector-curvature="0"
           id="path58"
           style="fill:#b3b3b3;fill-opacity:1;fill-rule:nonzero;stroke:none;stroke-width:0.0059577"
           d="m 183.45515,425.39202 c -0.17468,0 -0.24343,0.0596 -0.26661,0.24789 l -0.0687,0.47781 h 1.24939 l -0.0643,0.49604 h -1.25409 l -0.0825,0.6109 c -0.0232,0.16991 0.0321,0.23414 0.2065,0.23414 h 1.17146 l -0.0185,0.51921 c -0.40435,0.0459 -0.92773,0.0459 -1.37343,0.0459 -0.52821,0 -0.75788,-0.30324 -0.69812,-0.76236 l 0.25267,-1.80993 c 0.055,-0.38571 0.31689,-0.6246 0.75781,-0.6246 0.50528,0 1.04266,0.004 1.46071,0.0506 l -0.0872,0.51446 h -1.1851" />
        <path
           inkscape:connector-curvature="0"
           id="path60"
           style="fill:#b3b3b3;fill-opacity:1;fill-rule:nonzero;stroke:none;stroke-width:0.0059577"
           d="m 186.08172,425.39202 c -0.17462,0 -0.24337,0.0596 -0.26631,0.24789 l -0.069,0.47781 h 1.24939 l -0.0643,0.49604 h -1.25415 l -0.0827,0.6109 c -0.0229,0.16991 0.0324,0.23414 0.20679,0.23414 h 1.1714 l -0.0184,0.51921 c -0.40411,0.0459 -0.92779,0.0459 -1.37349,0.0459 -0.52815,0 -0.75788,-0.30324 -0.69806,-0.76236 l 0.25261,-1.80993 c 0.055,-0.38571 0.31689,-0.6246 0.75788,-0.6246 0.50521,0 1.04259,0.004 1.46064,0.0506 l -0.0872,0.51446 h -1.18516" />
        <path
           inkscape:connector-curvature="0"
           id="path62"
           style="fill:#b3b3b3;fill-opacity:1;fill-rule:nonzero;stroke:none;stroke-width:0.0059577"
           d="m 189.72306,426.69175 c 0.22967,-0.0182 0.34454,-0.0688 0.37218,-0.29395 0.0182,-0.21127 -0.0735,-0.22497 -0.35823,-0.22051 -0.3493,0 -0.46417,0.10563 -0.5421,0.56503 z m 0.80394,1.21274 c -0.28478,0.11939 -0.68907,0.16074 -0.99679,0.16074 -0.88662,0 -1.15746,-0.41806 -1.06106,-1.23545 0.11016,-0.90962 0.48233,-1.14851 1.31367,-1.14851 0.8361,0 1.03819,0.2987 0.96914,0.78104 -0.0643,0.44094 -0.34453,0.5879 -0.92773,0.6293 l -0.67072,0.0503 c 0.009,0.32164 0.16991,0.38147 0.45469,0.38147 0.22049,0 0.60191,-0.0185 0.87298,-0.0506 l 0.0458,0.4317" />
        <path
           inkscape:connector-curvature="0"
           id="path64"
           style="fill:#b3b3b3;fill-opacity:1;fill-rule:nonzero;stroke:none;stroke-width:0.0059577"
           d="m 191.4219,427.31659 c 0.16539,0 0.24814,0.0827 0.2252,0.24813 l -0.0321,0.22043 c -0.0185,0.1515 -0.0967,0.22502 -0.25737,0.22502 h -0.16991 c -0.17462,0 -0.24814,-0.0827 -0.22973,-0.25264 l 0.0322,-0.22046 c 0.0229,-0.15621 0.10563,-0.22048 0.26184,-0.22048 h 0.16991" />
        <path
           inkscape:connector-curvature="0"
           id="path66"
           style="fill:#b3b3b3;fill-opacity:1;fill-rule:nonzero;stroke:none;stroke-width:0.0059577"
           d="m 193.6449,427.83104 c -0.0458,0.11485 -0.12857,0.17913 -0.25261,0.17913 h -0.63384 c -0.11933,0 -0.21126,-0.092 -0.22496,-0.20207 l -0.45016,-2.9674 h 0.70729 l 0.24814,2.27833 c 0.0137,0.12404 0.0229,0.25259 0.0274,0.37217 h 0.11486 c 0.0321,-0.12405 0.0782,-0.25737 0.12404,-0.37671 l 0.89115,-2.27379 h 0.73942 l -1.29074,2.99034" />
        <path
           inkscape:connector-curvature="0"
           id="path68"
           style="fill:#b3b3b3;fill-opacity:1;fill-rule:nonzero;stroke:none;stroke-width:0.0059577"
           d="m 195.06319,427.31659 c 0.16544,0 0.24814,0.0827 0.22526,0.24813 l -0.0322,0.22043 c -0.0184,0.1515 -0.0966,0.22502 -0.25737,0.22502 h -0.16992 c -0.17462,0 -0.24814,-0.0827 -0.22967,-0.25264 l 0.0321,-0.22046 c 0.0229,-0.15621 0.10563,-0.22048 0.26185,-0.22048 h 0.16991" />
      </g>
      <g
         transform="matrix(2.6382789,0,0,2.6382789,145.62295,-1004.0736)"
         id="g2014">
        <path
           inkscape:connector-curvature="0"
           id="path34"
           style="fill:#ffffff;fill-opacity:1;fill-rule:nonzero;stroke:none;stroke-width:0.0059577"
           d="m 169.32551,420.30586 c -0.11636,0.84766 -0.0415,1.04707 0.4986,1.04707 0.52362,0 0.68978,-0.22443 0.82282,-1.16354 0.13291,-0.86422 0.0415,-1.06375 -0.46542,-1.06375 -0.54847,0 -0.71474,0.20787 -0.856,1.18022 z m 2.88376,0 c -0.22436,1.55401 -0.85594,2.10259 -2.43497,2.10259 -1.57075,0 -2.25219,-0.59839 -2.01948,-2.21906 0.21609,-1.57063 0.84766,-2.1275 2.45159,-2.1275 1.58731,0 2.23557,0.61508 2.00286,2.24397" />
        <path
           inkscape:connector-curvature="0"
           id="path36"
           style="fill:#ffffff;fill-opacity:1;fill-rule:nonzero;stroke:none;stroke-width:0.0059577"
           d="m 174.32795,420.30586 c -0.11629,0.84766 -0.0415,1.04707 0.49866,1.04707 0.52356,0 0.68978,-0.22443 0.82276,-1.16354 0.13297,-0.86422 0.0415,-1.06375 -0.46536,-1.06375 -0.54852,0 -0.71474,0.20787 -0.85606,1.18022 z m 2.88377,0 c -0.22437,1.55401 -0.85595,2.10259 -2.43492,2.10259 -1.57074,0 -2.25219,-0.59839 -2.01948,-2.21906 0.21603,-1.57063 0.8476,-2.1275 2.4516,-2.1275 1.58725,0 2.23556,0.61508 2.0028,2.24397" />
        <path
           inkscape:connector-curvature="0"
           id="path38"
           style="fill:#ffffff;fill-opacity:1;fill-rule:nonzero;stroke:none;stroke-width:0.0059577"
           d="m 179.31377,420.90419 c -0.0415,0.25756 0.0332,0.32404 0.34906,0.32404 h 0.34906 l 0.0831,1.014 c -0.24092,0.12464 -0.83098,0.17445 -1.08865,0.17445 -0.85594,0 -1.32964,-0.44868 -1.23824,-1.18011 l 0.6731,-4.7453 h 1.50426 l -0.63164,4.41292" />
        <path
           inkscape:connector-curvature="0"
           id="path40"
           style="fill:#ffffff;fill-opacity:1;fill-rule:nonzero;stroke:none;stroke-width:0.0059577"
           d="m 182.12253,421.34471 c 0.19946,0.0166 0.39065,0.0249 0.51528,0.0166 0.59005,-0.0166 0.77289,-0.21609 0.92243,-1.19678 0.10807,-0.75627 0.0498,-0.90581 -0.25767,-0.90581 -0.29914,0 -0.60655,0.15788 -0.93071,0.40721 z m 0.51528,-3.64844 c -0.0332,0.36562 -0.10807,0.69812 -0.24939,1.05541 0.40721,-0.39053 0.95579,-0.68144 1.53745,-0.68144 0.99725,0 1.3963,0.63997 1.16353,2.20232 -0.19118,1.30479 -0.70634,2.13589 -2.30199,2.13589 -0.6233,0 -1.78684,-0.11641 -2.28544,-0.3325 l 0.78118,-5.58468 h 1.51248 l -0.15782,1.205" />
        <path
           inkscape:connector-curvature="0"
           id="path42"
           style="fill:#ffffff;fill-opacity:1;fill-rule:nonzero;stroke:none;stroke-width:0.0059577"
           d="m 187.21648,420.30586 c -0.11635,0.84766 -0.0416,1.04707 0.4986,1.04707 0.52356,0 0.68978,-0.22443 0.82282,-1.16354 0.13286,-0.86422 0.0415,-1.06375 -0.46542,-1.06375 -0.54852,0 -0.7148,0.20787 -0.856,1.18022 z m 2.88377,0 c -0.22437,1.55401 -0.85601,2.10259 -2.43498,2.10259 -1.57074,0 -2.25218,-0.59839 -2.01954,-2.21906 0.21609,-1.57063 0.84772,-2.1275 2.45166,-2.1275 1.58731,0 2.2355,0.61508 2.00286,2.24397" />
        <path
           inkscape:connector-curvature="0"
           id="path44"
           style="fill:#ffffff;fill-opacity:1;fill-rule:nonzero;stroke:none;stroke-width:0.0059577"
           d="m 194.80367,422.30872 h -1.42949 l -0.66488,-1.6538 -1.14686,1.6538 h -1.57056 l 1.52898,-2.11093 -0.83932,-2.01948 h 1.41281 l 0.61495,1.55406 1.08043,-1.55406 h 1.52916 l -1.42943,2.01948 0.91421,2.11093" />
        <path
           inkscape:connector-curvature="0"
           id="path70"
           style="fill:#ffffff;fill-opacity:1;fill-rule:nonzero;stroke:none;stroke-width:0.0059577"
           d="m 166.86992,417.87053 -0.6302,4.49562 h -1.8476 l 0.6302,-4.49562 h -1.61781 l 0.19583,-1.37926 h 5.09151 l -0.19547,1.37926 h -1.62646" />
      </g>
    </g>
    <g
       id="g2336"
       transform="matrix(1.139481,0,0,1.139481,-7.1644653,-125.26783)">
      <path
         inkscape:connector-curvature="0"
         style="fill:#ffffff;stroke-width:0.05560077"
         d="m 166.89087,351.36242 -9.08148,-0.0285 -0.18256,-0.13021 c -0.22963,-0.16379 -0.58029,-0.87605 -0.73624,-1.49549 -0.26917,-1.06913 -0.4251,-2.23943 -0.51162,-3.84 -0.0325,-0.60123 -0.11158,-1.90038 -0.17572,-2.88701 -0.12734,-1.95866 -0.11818,-3.18454 0.0375,-5.01724 0.2349,-2.76565 0.6619,-4.42441 1.23572,-4.80039 0.15784,-0.10342 1.81274,-0.20412 7.18386,-0.43711 5.05247,-0.21917 10.51111,-0.039 13.57959,0.44827 0.69201,0.10989 0.81918,0.20716 1.15143,0.88075 0.33583,0.68085 0.5283,1.45473 0.57838,2.32554 0.0545,0.94747 0.0322,1.17165 -0.12056,1.21263 -0.19531,0.0524 -0.82023,0.0387 -0.93069,-0.0205 -0.15967,-0.0855 -0.27424,-0.44842 -0.36727,-1.16357 -0.19737,-1.51721 -0.4655,-1.87392 -1.61225,-2.14487 -1.28089,-0.30266 -3.22882,-0.41565 -7.10501,-0.41216 -3.76702,0.003 -6.67654,0.11932 -9.59588,0.38232 -0.72143,0.065 -0.92761,0.10391 -1.15145,0.21734 -0.58004,0.29393 -1.01333,0.9806 -1.27882,2.02664 -0.20342,0.80151 -0.24454,1.32771 -0.30481,3.90057 -0.0867,3.69906 0.0541,5.49028 0.58216,7.40621 0.31909,1.15781 0.58426,1.55085 1.27296,1.88678 0.76581,0.37355 0.4659,0.36024 8.06532,0.35791 6.58666,-0.002 8.76166,-0.0433 9.61647,-0.18239 0.79548,-0.12947 1.2514,-0.95446 1.51315,-2.73806 0.1221,-0.83201 0.13673,-0.88228 0.29896,-1.02722 0.32901,-0.29397 0.76019,-0.25859 0.94365,0.0774 0.16485,0.30194 0.13038,1.27821 -0.0807,2.28679 -0.27221,1.30036 -0.52167,2.18063 -0.66688,2.3532 -0.2834,0.33679 -1.11895,0.538 -2.37495,0.5719 -0.3854,0.0104 -4.78739,0.006 -9.7822,-0.01 z"
         id="path876" />
      <path
         sodipodi:nodetypes="ccccccccccccccccccccccscccccccccccccccscsccccccccccccscscccccccccccccccsccccccccsccccscccccccccccccccccccccccscccccccccccccccccccccccccccccccccsccccccccccccccccccccccccccccccccccccccccccccccccccccccccccccsccccccccccccccccccccccccccccccccccccccscccccccccccccccccccccccccccccccccccsccccscccccccccccccccccccccccccccccccsccccccscccccccccccsc"
         inkscape:connector-curvature="0"
         id="path2161"
         transform="matrix(0.26458333,0,0,0.26458333,0,11.24997)"
         d="m 699.29883,1220.418 c -0.94254,0.035 -1.42615,0.2361 -2.50195,1.0351 -0.73388,0.545 -1.41743,1.2603 -1.51758,1.5899 -0.29205,0.9629 0.51707,2.8451 1.37109,3.1894 0.39874,0.1608 0.74295,0.379 0.76563,0.4864 0.0604,0.2951 10.06727,7.0529 11.07421,7.4785 0.48371,0.2044 1.02965,0.4322 1.21485,0.5078 0.18504,0.075 1.56939,0.3448 3.07617,0.5996 3.29715,0.5575 5.00381,1.0975 6.69141,2.1152 0.8281,0.4982 1.49687,0.8508 2.10937,1.0996 0.0406,0.051 0.0644,0.085 0.10547,0.1367 6.63696,8.3911 10.87566,15.4098 11.04688,18.2891 l 0.0762,1.291 -0.82032,-1.8008 c -1.80056,-3.9516 -4.94818,-8.5649 -8.19921,-12.0175 -1.72804,-1.8352 -1.99698,-2.0321 -4.41993,-3.211 -4.99706,-2.4313 -10.73771,-3.8644 -17.91015,-4.4707 -1.5292,-0.1292 -9.31876,-0.2195 -18.75,-0.2168 -15.28241,0 -18.4964,-0.089 -22.69141,-0.6523 -1.98066,-0.2662 -2.56964,-0.5335 -3.50391,-1.5977 -1.28141,-1.4595 -1.3514,-1.8138 -1.49804,-7.4961 -0.0733,-2.855 -0.14907,-5.2139 -0.16797,-5.2441 -0.0185,-0.03 -0.78887,-0.053 -1.71289,-0.053 h -1.67969 l -0.22265,1.1132 c -0.9783,4.8978 -0.86087,11.0333 0.2539,13.2872 0.38752,0.7834 0.72198,1.0843 1.94727,1.7402 2.04336,1.0938 5.51718,2.2086 8.62304,2.7676 2.34486,0.4222 3.3206,0.4708 9.60157,0.4746 3.84551,0 9.18502,-0.032 11.86523,-0.076 8.5841,-0.141 21.75183,-0.037 24.04688,0.1914 5.72851,0.569 10.30712,2.3612 13.38085,5.2363 0.97996,0.9166 1.809,2.0992 1.61133,2.2969 -0.0453,0.045 -0.78548,-0.2563 -1.64453,-0.668 -2.03542,-0.9754 -5.29104,-2.1054 -7.94336,-2.7578 -3.32148,-0.8169 -10.44882,-0.97 -31.71094,-0.6816 -18.33996,0.2486 -26.54365,0.1 -29.56054,-0.5352 -1.5656,-0.3295 -2.44444,-0.9098 -4.95117,-3.2695 -2.5313,-2.3828 -4.17478,-4.3764 -9.67774,-11.7383 -2.55515,-3.4183 -4.78172,-6.3227 -4.94726,-6.4531 -0.30244,-0.2381 -5.06836,-0.6253 -5.06836,-0.4121 0,0.062 3.74931,4.8096 8.33203,10.5508 8.62908,10.8102 10.3781,12.7348 12.5664,13.8261 l 1.24219,0.6211 8.36914,0.2578 c 17.86447,0.553 24.58271,0.711 39.51563,0.9317 16.56007,0.2447 17.54287,0.3135 20.44336,1.4004 1.73654,0.6507 3.39701,1.7406 4.14453,2.7207 0.31782,0.4166 0.53741,0.7966 0.48828,0.8457 -0.0492,0.049 -1.26551,-0.2829 -2.70313,-0.7383 -4.64212,-1.4703 -4.1963,-1.4322 -20.46679,-1.7168 -19.17846,-0.3356 -43.94291,-0.3481 -46.95508,-0.023 -2.52922,0.2726 -5.11784,1.1084 -6.58203,2.125 -1.96747,1.366 -7.16985,6.8211 -10.73047,11.2519 -1.72944,2.1521 -9.50294,12.9446 -9.70703,13.4766 -0.10167,0.2653 0.22523,0.3144 2.09375,0.3144 h 2.21289 l 6.37305,-7.998 c 5.90486,-7.4126 8.38635,-10.2001 10.53906,-11.8359 2.13071,-1.6192 4.64579,-2.8311 7.52148,-3.6211 1.62758,-0.4472 3.36071,-0.4518 22.35352,-0.074 6.8753,0.1369 18.22103,0.3361 25.21289,0.4434 12.81607,0.1968 14.15327,0.2797 17.07031,1.0664 1.4815,0.3996 3.95699,1.5899 3.74609,1.8008 -0.0502,0.05 -2.75124,-0.016 -6.0039,-0.1465 -3.78679,-0.1523 -10.21966,-0.188 -17.88477,-0.1 -6.58401,0.076 -16.50055,0.1327 -22.03711,0.1289 -5.73532,-0.01 -11.02295,0.087 -12.28906,0.2168 -5.16692,0.5291 -8.86379,1.5876 -11.07617,3.1719 -1.04961,0.7516 -1.22469,0.9903 -1.63477,2.2226 -1.02285,3.0733 -1.34207,7.6469 -0.82617,11.8535 0.35225,2.8719 0.35251,2.8711 1.93945,2.8711 0.82663,0 1.50251,-0.1173 1.7754,-0.3086 0.74902,-0.5247 1.01041,-1.9666 0.79687,-4.414 -0.3428,-3.9307 -0.23385,-6.6581 0.32227,-8.0664 0.82545,-2.0904 1.25781,-2.4133 3.72656,-2.7735 5.23037,-0.7631 11.37732,-1.1692 17.69922,-1.1699 1.92428,-3e-4 9.2765,0.04 15.72851,0.074 0.22004,0.061 0.44506,0.1247 0.59961,0.2032 0.40075,0.2033 1.20868,0.3649 1.79492,0.3574 0.58625,-0.01 1.31653,0.1402 1.62305,0.3262 0.30652,0.186 0.92318,0.5374 1.37109,0.7812 0.44788,0.2439 0.86739,0.7069 0.93165,1.0293 0.24737,1.24 -5.649,10.5915 -6.82618,10.8262 -0.3888,0.078 -0.76122,0.2876 -0.82812,0.4668 -0.0667,0.1792 -0.57523,0.6497 -1.13086,1.0449 -0.55563,0.3952 -1.49161,1.3865 -2.08008,2.2031 -0.58843,0.8166 -1.26869,1.5239 -1.51172,1.5723 -0.24283,0.048 -0.54772,0.2487 -0.67773,0.4433 -0.1299,0.1946 -0.95898,0.7234 -1.8418,1.1758 -0.88286,0.4525 -2.49578,1.3891 -3.58398,2.0801 -2.04359,1.298 -3.41146,1.7428 -4.69336,1.5273 -0.40747,-0.068 -1.68994,-0.012 -2.84961,0.125 -1.64005,0.1941 -2.20735,0.3612 -2.55469,0.752 -0.65582,0.7378 0.0734,1.2017 1.73242,1.1016 0.76415,-0.046 1.57888,0.095 1.89258,0.3281 0.30289,0.2248 0.90931,0.4163 1.34766,0.4238 0.43838,0.01 1.1835,0.2112 1.65625,0.4512 1.20767,0.6129 3.69133,0.1255 4.42187,-0.8672 0.30932,-0.4204 0.99903,-0.8453 1.7461,-1.0781 0.81206,-0.253 1.4713,-0.6825 1.92968,-1.2559 0.47464,-0.5938 1.011,-0.9338 1.68164,-1.0683 0.54131,-0.1086 1.33,-0.5177 1.75391,-0.9082 0.42387,-0.3906 0.92626,-0.7396 1.11523,-0.7774 0.18891,-0.038 0.67711,-0.4374 1.08594,-0.8867 0.40883,-0.4494 1.13264,-0.9732 1.60742,-1.1641 0.76562,-0.3079 3.18468,-3.0795 3.89844,-4.4668 0.34515,-0.6707 1.80638,-1.7501 3.3086,-2.4433 0.73198,-0.3378 1.81534,-1.0131 2.4082,-1.502 1.07229,-0.8842 1.11632,-0.8966 8.58984,-2.3418 4.13186,-0.799 7.9791,-1.6303 8.54883,-1.8476 0.49105,-0.1873 2.36646,-1.0932 4.18164,-1.8028 0.66662,0.065 1.3825,0.113 2.18164,0.1407 2.40635,0.083 3.59339,0.024 5.19141,-0.2598 5.31282,-0.9426 12.31897,-4.0213 18.75781,-8.2383 -0.22024,-0.276 -0.53404,-0.4395 -0.92969,-0.4902 0.56165,-0.1606 1.13215,-0.3185 1.58399,-0.3789 0.0418,0.435 -0.0982,1.0793 -0.33594,1.7968 -0.0207,-0.29 -0.0726,-0.5482 -0.17773,-0.7461 -0.10758,0.1382 -0.12508,0.1789 -0.33594,0.4336 -5.19617,6.2782 -12.35314,9.7153 -21.8125,10.4747 -3.04592,0.2445 -4.50553,0.592 -5.60938,1.3359 -1.0103,0.6809 -0.97076,1.3396 0.125,2.0898 1.42617,0.9764 3.09745,1.3105 5.96875,1.1914 5.78854,-0.24 11.89133,-2.2538 16.59571,-5.4746 3.90121,-2.6708 6.65931,-5.5575 8.37304,-8.7285 0.54234,-0.2213 0.99777,-0.3291 1.30469,-0.25 0.19864,0.051 0.14262,0.4191 -0.0684,0.9727 -1.30873,1.8958 -4.90608,6.2975 -6.82422,8.2773 -4.65819,4.8079 -8.25271,7.111 -14.01562,8.9824 -0.52441,0.1703 -2.19216,0.445 -3.70703,0.6094 -3.00673,0.326 -4.66586,0.7416 -5.4336,1.3633 l -0.49609,0.4023 0.81445,0.7657 c 0.99806,0.9412 1.82656,1.3891 3.20703,1.7304 1.60086,0.3956 1.78856,0.3768 7.17578,-0.7461 4.78772,-0.9978 5.08321,-1.0896 6.65039,-2.0351 4.15119,-2.5044 7.55481,-5.6361 10.13282,-9.2793 0.86908,0.2542 1.65622,0.5136 1.76367,0.6289 0.0812,0.087 0.29996,0.1809 0.58594,0.2754 -3.56036,5.896 -5.96839,8.9662 -8.69336,11.1465 -2.84138,2.2733 -5.7262,3.4531 -9.29883,3.8027 l -1.42969,0.1406 v 0.7071 c 0,0.5805 0.13322,0.7903 0.74414,1.1679 0.40951,0.2531 1.00523,0.5388 1.32422,0.6348 1.04769,0.3154 3.7153,0.2177 5.45313,-0.1992 6.24597,-1.4987 11.28375,-5.5924 14.28515,-11.6094 0.72311,-1.4497 1.45466,-3.3977 2.00977,-5.1856 0.78551,0.052 1.98211,0.2733 2.98047,0.5704 2.5056,0.7458 7.36577,2.0524 8.68554,2.3359 3.89046,0.8353 3.98284,0.8709 8.22071,3.1758 1.70358,0.9265 3.11359,1.5039 5.94336,2.4336 0.35852,0.1198 0.84946,0.1762 1.08984,0.1308 0.24034,-0.046 0.62006,0.067 0.8457,0.25 0.22549,0.1828 1.6612,0.6694 3.18946,1.0821 1.52825,0.4128 2.86078,0.8379 2.96093,0.9453 0.10016,0.1103 0.37347,0.1582 0.60743,0.1113 0.23399,-0.047 1.14473,0.2101 2.02343,0.5703 1.36804,0.5608 1.65399,0.8049 1.99414,1.6973 0.21846,0.5733 0.4343,1.6433 0.47852,2.3769 0.12117,2.0099 0.89314,3.3462 2.24609,3.8887 0.61765,0.2477 2.33234,1.2209 3.81055,2.1621 1.47817,0.9413 2.7906,1.6905 2.91797,1.6641 0.12729,-0.025 0.71805,0.265 1.3125,0.6445 1.15147,0.7351 2.26919,1.2512 4.49609,2.0781 1.24615,0.4628 1.42632,0.6349 1.80469,1.7285 0.6045,1.747 1.02003,2.1278 2.73242,2.5098 0.83928,0.1872 1.79423,0.6147 2.12305,0.9492 0.37519,0.3815 1.04564,0.6356 1.79883,0.6836 1.67701,0.1056 3.35467,0.848 5.40234,2.3907 0.96503,0.727 1.87081,1.409 2.01367,1.5156 0.14272,0.1063 0.94491,0.2874 1.78321,0.4023 v 0 c 0.83822,0.1156 1.69081,0.1006 1.89453,-0.031 0.2036,-0.1319 1.49661,-0.566 2.87304,-0.9648 1.37647,-0.3987 3.10293,-0.9874 3.83789,-1.3086 1.7497,-0.765 3.52921,-2.8307 3.70118,-4.2969 0.0684,-0.5835 0.27202,-1.4033 0.45117,-1.8223 0.17953,-0.4189 0.34047,-1.1244 0.35937,-1.5683 0.03,-0.7378 0.11453,-0.8116 0.98242,-0.8418 0.52222,-0.019 0.99529,-0.1618 1.05274,-0.3164 0.24915,-0.6687 1.34513,-0.5023 2.16797,0.3281 0.685,0.6913 1.21977,0.8999 2.84765,1.1191 3.79971,0.5115 4.88191,0.2182 6.30078,-1.7148 0.50136,-0.683 1.25759,-1.5159 1.67969,-1.8496 0.80217,-0.6341 2.96294,-3.7336 2.88281,-4.1348 -0.0254,-0.1274 0.31397,-0.3029 0.75391,-0.3906 l 0.80078,-0.1602 0.16602,1.5684 c 0.16116,1.5238 0.20219,1.5994 1.46875,2.5645 l 1.30469,0.9921 0.6875,-0.9726 c 0.3784,-0.5352 0.82147,-1.439 0.98437,-2.0078 0.39572,-1.383 1.68291,-3.4006 2.24024,-3.5117 0.24657,-0.049 0.74616,0.1639 1.10937,0.4746 0.3634,0.3105 0.85161,0.5273 1.08594,0.4804 0.6672,-0.133 2.50059,-1.8553 3.63086,-3.4121 0.56587,-0.7795 1.18079,-1.4745 1.36523,-1.5429 0.1844,-0.069 2.42226,-0.5468 4.97461,-1.0625 l 4.64063,-0.9375 0.60937,-1.0313 c 0.44916,-0.7608 0.55548,-1.3026 0.4043,-2.0605 -0.33876,-1.6981 -0.9592,-2.4175 -3.10352,-3.5977 -1.12399,-0.6187 -2.5358,-1.4028 -3.13867,-1.7422 -0.60287,-0.3394 -1.83412,-1.3465 -2.73633,-2.2383 -2.42347,-2.3953 -4.42173,-2.8035 -7.00976,-1.4316 -0.72904,0.3865 -1.33537,0.9963 -1.75391,1.7598 -0.56867,1.0372 -0.76192,1.183 -1.71289,1.2929 -1.48362,0.1718 -1.73601,-0.5286 -0.51953,-1.4394 0.4992,-0.3738 0.92459,-0.828 0.94726,-1.0098 0.0212,-0.1818 -0.46947,-0.5777 -1.08984,-0.8808 -1.04538,-0.5112 -1.37984,-0.518 -4.5625,-0.076 l -3.43359,0.4765 -1.57422,-0.955 c -0.9902,-0.6014 -1.82428,-0.9082 -2.25,-0.8262 -0.83263,0.1609 -1.21671,0.014 -1.78711,-0.6895 -0.41137,-0.5087 -0.55779,-0.5105 -2.09375,-0.037 -1.71526,0.5286 -2.87011,0.4384 -3.00391,-0.2324 -0.0385,-0.193 -0.34161,-0.5121 -0.67383,-0.7109 -0.33237,-0.1986 -0.74808,-0.6681 -0.92382,-1.043 -0.46205,-0.9857 -2.18982,-2.0875 -3.25391,-2.0762 -0.73115,0.01 -1.12977,0.2255 -1.98047,1.0703 -1.60641,1.5953 -5.16729,2.5852 -7.05664,1.9629 -2.26012,-0.7443 -2.91922,-1.0495 -4.61328,-2.1425 -1.58559,-1.0231 -1.98213,-1.4371 -2.57813,-2.6914 -1.02837,-2.1644 -1.47881,-2.7824 -2.25195,-3.0938 -0.48374,-0.1949 -1.12606,-1.0466 -2.13867,-2.834 -1.37507,-2.4272 -1.56764,-2.6393 -3.875,-4.248 -2.56483,-1.7883 -5.26697,-2.8173 -6.66211,-2.5391 -0.42512,0.085 -1.28517,0.4064 -1.91016,0.7149 -1.20665,0.5949 -1.43494,0.6068 -6.35547,0.3339 -3.94518,-0.2189 -4.89617,-0.3848 -5.44726,-0.9453 -0.96794,-0.9846 -3.00662,-1.2997 -5.28125,-0.8183 -2.73007,0.5777 -4.23894,1.1389 -5.31055,1.9765 -0.4919,0.3845 -1.10961,0.7429 -1.37304,0.7969 -0.26351,0.054 -1.08144,0.5426 -1.81641,1.084 -2.03104,1.496 -3.72871,1.9292 -5.50781,1.4082 -0.79631,-0.2334 -1.89896,-0.4197 -2.44922,-0.4121 -0.55026,0.01 -1.25296,-0.1765 -1.5625,-0.4063 -0.30943,-0.2294 -0.69604,-0.3896 -0.85742,-0.3593 -0.16154,0.032 -1.08819,-0.1593 -2.06055,-0.4239 -0.97232,-0.2647 -1.96306,-0.4414 -2.20117,-0.3945 -0.23819,0.047 -0.76543,-0.084 -1.17188,-0.2891 -0.40645,-0.2053 -1.80395,-0.6824 -3.10547,-1.0605 -1.30151,-0.378 -2.98083,-0.9339 -3.73047,-1.2344 -0.74959,-0.3005 -1.834,-0.7086 -2.41015,-0.9082 -0.57623,-0.1994 -1.67294,-0.6696 -2.4375,-1.0449 -0.76452,-0.3755 -1.98194,-0.9142 -2.70508,-1.1973 -0.7231,-0.283 -2.37199,-1.2015 -3.66406,-2.041 -1.87287,-1.2169 -2.42609,-1.7282 -2.72657,-2.5215 -0.20723,-0.5471 -0.65272,-1.5046 -0.99023,-2.1269 -0.33744,-0.6224 -0.76887,-1.5592 -0.95898,-2.0821 -0.24654,-0.6783 -0.693,-1.1474 -1.56055,-1.6386 -1.53453,-0.8689 -3.78965,-1.7075 -4.31055,-1.6036 -0.21891,0.044 -0.75196,-0.1003 -1.18554,-0.3203 -0.43355,-0.2203 -1.08362,-0.3413 -1.44532,-0.2695 -0.36147,0.072 -1.16278,-0.082 -1.77929,-0.3418 -0.61648,-0.26 -1.27549,-0.4421 -1.46485,-0.4043 -0.31445,0.063 -1.48439,-0.3452 -4.39648,-1.5332 -0.5929,-0.2419 -1.22798,-0.4128 -1.41016,-0.375 -0.18228,0.036 -0.70679,-0.1112 -1.16797,-0.3281 -0.54776,-0.2574 -1.47693,-0.3267 -2.67968,-0.2012 -2.02198,0.2106 -1.88239,0.2652 -5.84961,-2.2969 -1.25299,-0.8092 -2.39261,-1.4463 -2.53321,-1.4199 -0.14048,0.028 -0.59096,-0.1891 -1.00195,-0.4824 -0.41095,-0.2932 -1.10404,-0.5413 -1.53906,-0.5488 -0.43499,-0.01 -1.11062,-0.1762 -1.50196,-0.3731 -0.39125,-0.1966 -1.03257,-0.3908 -1.42382,-0.4316 -0.39126,-0.041 -1.10763,-0.2913 -1.59375,-0.5567 -0.48609,-0.2649 -1.00658,-0.4579 -1.15625,-0.4277 -0.3004,0.06 -1.14233,-0.3267 -4.03125,-1.8594 -2.66094,-1.4115 -3.26544,-1.6182 -4.61133,-1.5683 z m 49.99805,37.3925 c 0.30847,-0.3962 0.3463,-0.499 -0.0898,-0.2128 -0.0167,0.011 -0.0341,0.02 -0.0508,0.031 0.0478,0.06 0.10274,0.1104 0.14063,0.1816 z m 5.21484,24.002 c -0.20281,-0.03 -0.91075,0.5318 -2.30469,1.8223 -1.24282,1.1505 -2.25976,2.1858 -2.25976,2.3007 0,0.115 0.47812,0.7299 1.06054,1.3672 3.46099,3.7869 6.11519,9.498 6.79883,14.627 0.50188,3.7654 -0.26579,11.0089 -1.39844,13.1992 -0.52603,1.0173 -2.1022,2.6355 -3.91797,4.0215 -1.76182,1.3448 -3.18137,2.7963 -3.68359,3.7676 -0.41949,0.8113 -0.64412,2.2003 -0.46875,2.8984 l 0.13477,0.5391 1.21484,-0.6094 c 0.66769,-0.3351 1.74622,-0.7618 2.39648,-0.9492 0.96953,-0.2793 1.50679,-0.6428 2.98243,-2.0235 3.74105,-3.5001 6.02038,-7.9546 7.1875,-14.041 0.384,-2.0022 0.43199,-2.7348 0.29101,-4.414 -0.25096,-2.9934 -0.23482,-4.8183 0.043,-5.0957 0.18501,-0.1847 0.70303,-0.137 2.11914,0.1953 4.59689,1.0791 9.18316,1.0291 12.66406,-0.1387 1.98505,-0.666 2.13693,-0.944 1.37891,-2.5098 -0.91408,-1.8882 -2.18349,-2.1425 -6.17188,-1.2422 -2.666,0.6018 -4.25369,0.6672 -5.41015,0.2227 -0.43937,-0.1689 -1.22756,-0.4186 -1.75,-0.5527 -2.24013,-0.5758 -4.51981,-2.3071 -6.23828,-4.7364 -0.79427,-1.1227 -4.33089,-7.7176 -4.61133,-8.5996 -0.009,-0.028 -0.0277,-0.044 -0.0566,-0.049 z m -7.61328,6.7695 -1.83399,0.1309 c -2.64397,0.1877 -2.71028,0.2287 -3.26757,1.9863 -0.68081,2.1474 -2.53096,5.5242 -5.36719,9.8008 -2.55485,3.8523 -4.34229,7.1702 -5.13867,9.5391 -0.58734,1.7467 -0.78564,5.7201 -0.36524,7.3105 0.31461,1.1901 0.36856,1.2053 2.59961,0.7422 l 1.10742,-0.2305 0.13672,-1.623 c 0.35467,-4.1961 2.30219,-8.7065 5.73438,-13.2793 1.57394,-2.0971 4.16536,-5.1707 4.3789,-5.1934 0.0689,-0.01 0.38937,0.4722 0.71289,1.0664 l 0.58789,1.0801 -0.10547,4.0567 c -0.12105,4.6672 -0.3753,6.2453 -2.27539,14.123 -2.12757,8.8208 -1.73677,8.7547 -1.43554,13.7012 0.40426,6.6378 5.12052,8.3605 10.07226,9.0175 2.50141,0.332 3.38218,0.2365 3.66602,-0.5136 0.0994,-0.2622 0.25052,-1.0815 0.33594,-1.8203 0.14902,-1.2902 0.13025,-1.3688 -0.4668,-2.0118 -2.47763,-2.6679 -8.03185,0.6118 -8.99219,-4.6386 -0.55608,-3.0402 -0.57964,-3.7023 0.40625,-9.1797 2.03418,-11.3015 2.70573,-15.9027 2.49219,-21.082 -0.18713,-4.5336 -0.76375,-7.3314 -2.32617,-11.3106 z m -6.69727,35.0196 -0.79492,0.01 c -0.43699,0 -2.30171,0.091 -4.14453,0.1934 -2.99233,0.1657 -3.4754,0.2479 -4.51367,0.7558 -1.33852,0.6549 -2.175,1.7381 -2.34961,3.0411 l -0.11328,0.8476 0.92578,0.084 c 1.86361,0.1658 2.23974,0.1491 6.10351,-0.2734 5.4946,-0.6009 4.88672,-0.2722 4.88672,-2.6465 z"
         style="fill:#009ee0;fill-opacity:1;stroke:#ffffff;stroke-width:0.21014464" />
      <path
         style="fill:#009ee0;fill-opacity:1;stroke:#ffffff;stroke-width:1.31638885;stroke-miterlimit:4;stroke-dasharray:none"
         d="m 699.29883,1220.418 c -0.94254,0.035 -1.42615,0.2361 -2.50195,1.0351 -0.73388,0.545 -1.41743,1.2603 -1.51758,1.5899 -0.29205,0.9629 0.51707,2.8451 1.37109,3.1894 0.39874,0.1608 0.74295,0.379 0.76563,0.4864 0.0604,0.2951 10.06727,7.0529 11.07421,7.4785 0.48371,0.2044 1.02965,0.4322 1.21485,0.5078 0.18504,0.075 1.56939,0.3448 3.07617,0.5996 3.29715,0.5575 5.00381,1.0975 6.69141,2.1152 0.8281,0.4982 1.49687,0.8508 2.10937,1.0996 0.0406,0.051 0.0644,0.085 0.10547,0.1367 6.63696,8.3911 10.87566,15.4098 11.04688,18.2891 l 0.0762,1.291 -0.82032,-1.8008 c -1.80056,-3.9516 -4.94818,-8.5649 -8.19921,-12.0175 -1.72804,-1.8352 -1.99698,-2.0321 -4.41993,-3.211 -4.99706,-2.4313 -10.73771,-3.8644 -17.91015,-4.4707 -1.5292,-0.1292 -9.31876,-0.2195 -18.75,-0.2168 -15.28241,0 -18.4964,-0.089 -22.69141,-0.6523 -1.98066,-0.2662 -2.56964,-0.5335 -3.50391,-1.5977 -1.28141,-1.4595 -1.3514,-1.8138 -1.49804,-7.4961 -0.0733,-2.855 -0.14907,-5.2139 -0.16797,-5.2441 -0.0185,-0.03 -0.78887,-0.053 -1.71289,-0.053 h -1.67969 l -0.22265,1.1132 c -0.9783,4.8978 -0.86087,11.0333 0.2539,13.2872 0.38752,0.7834 0.72198,1.0843 1.94727,1.7402 2.04336,1.0938 5.51718,2.2086 8.62304,2.7676 2.34486,0.4222 3.3206,0.4708 9.60157,0.4746 3.84551,0 9.18502,-0.032 11.86523,-0.076 8.5841,-0.141 21.75183,-0.037 24.04688,0.1914 5.72851,0.569 10.30712,2.3612 13.38085,5.2363 0.97996,0.9166 1.809,2.0992 1.61133,2.2969 -0.0453,0.045 -0.78548,-0.2563 -1.64453,-0.668 -2.03542,-0.9754 -5.29104,-2.1054 -7.94336,-2.7578 -3.32148,-0.8169 -10.44882,-0.97 -31.71094,-0.6816 -18.33996,0.2486 -26.54365,0.1 -29.56054,-0.5352 -1.5656,-0.3295 -2.44444,-0.9098 -4.95117,-3.2695 -2.5313,-2.3828 -4.17478,-4.3764 -9.67774,-11.7383 -2.55515,-3.4183 -4.78172,-6.3227 -4.94726,-6.4531 -0.30244,-0.2381 -5.06836,-0.6253 -5.06836,-0.4121 0,0.062 3.74931,4.8096 8.33203,10.5508 8.62908,10.8102 10.3781,12.7348 12.5664,13.8261 l 1.24219,0.6211 8.36914,0.2578 c 17.86447,0.553 24.58271,0.711 39.51563,0.9317 16.56007,0.2447 17.54287,0.3135 20.44336,1.4004 1.73654,0.6507 3.39701,1.7406 4.14453,2.7207 0.31782,0.4166 0.53741,0.7966 0.48828,0.8457 -0.0492,0.049 -1.26551,-0.2829 -2.70313,-0.7383 -4.64212,-1.4703 -4.1963,-1.4322 -20.46679,-1.7168 -19.17846,-0.3356 -43.94291,-0.3481 -46.95508,-0.023 -2.52922,0.2726 -5.11784,1.1084 -6.58203,2.125 -1.96747,1.366 -7.16985,6.8211 -10.73047,11.2519 -1.72944,2.1521 -9.50294,12.9446 -9.70703,13.4766 -0.10167,0.2653 0.22523,0.3144 2.09375,0.3144 h 2.21289 l 6.37305,-7.998 c 5.90486,-7.4126 8.38635,-10.2001 10.53906,-11.8359 2.13071,-1.6192 4.64579,-2.8311 7.52148,-3.6211 1.62758,-0.4472 3.36071,-0.4518 22.35352,-0.074 6.8753,0.1369 18.22103,0.3361 25.21289,0.4434 12.81607,0.1968 14.15327,0.2797 17.07031,1.0664 1.4815,0.3996 3.95699,1.5899 3.74609,1.8008 -0.0502,0.05 -2.75124,-0.016 -6.0039,-0.1465 -3.78679,-0.1523 -10.21966,-0.188 -17.88477,-0.1 -6.58401,0.076 -16.50055,0.1327 -22.03711,0.1289 -5.73532,-0.01 -11.02295,0.087 -12.28906,0.2168 -5.16692,0.5291 -8.86379,1.5876 -11.07617,3.1719 -1.04961,0.7516 -1.22469,0.9903 -1.63477,2.2226 -1.02285,3.0733 -1.34207,7.6469 -0.82617,11.8535 0.35225,2.8719 0.35251,2.8711 1.93945,2.8711 0.82663,0 1.50251,-0.1173 1.7754,-0.3086 0.74902,-0.5247 1.01041,-1.9666 0.79687,-4.414 -0.3428,-3.9307 -0.23385,-6.6581 0.32227,-8.0664 0.82545,-2.0904 1.25781,-2.4133 3.72656,-2.7735 5.23037,-0.7631 11.37732,-1.1692 17.69922,-1.1699 1.92428,-3e-4 9.2765,0.04 15.72851,0.074 0.22004,0.061 0.44506,0.1247 0.59961,0.2032 0.40075,0.2033 1.20868,0.3649 1.79492,0.3574 0.58625,-0.01 1.31653,0.1402 1.62305,0.3262 0.30652,0.186 0.92318,0.5374 1.37109,0.7812 0.44788,0.2439 0.86739,0.7069 0.93165,1.0293 0.24737,1.24 -5.649,10.5915 -6.82618,10.8262 -0.3888,0.078 -0.76122,0.2876 -0.82812,0.4668 -0.0667,0.1792 -0.57523,0.6497 -1.13086,1.0449 -0.55563,0.3952 -1.49161,1.3865 -2.08008,2.2031 -0.58843,0.8166 -1.26869,1.5239 -1.51172,1.5723 -0.24283,0.048 -0.54772,0.2487 -0.67773,0.4433 -0.1299,0.1946 -0.95898,0.7234 -1.8418,1.1758 -0.88286,0.4525 -2.49578,1.3891 -3.58398,2.0801 -2.04359,1.298 -3.41146,1.7428 -4.69336,1.5273 -0.40747,-0.068 -1.68994,-0.012 -2.84961,0.125 -1.64005,0.1941 -2.20735,0.3612 -2.55469,0.752 -0.65582,0.7378 0.0734,1.2017 1.73242,1.1016 0.76415,-0.046 1.57888,0.095 1.89258,0.3281 0.30289,0.2248 0.90931,0.4163 1.34766,0.4238 0.43838,0.01 1.1835,0.2112 1.65625,0.4512 1.20767,0.6129 3.69133,0.1255 4.42187,-0.8672 0.30932,-0.4204 0.99903,-0.8453 1.7461,-1.0781 0.81206,-0.253 1.4713,-0.6825 1.92968,-1.2559 0.47464,-0.5938 1.011,-0.9338 1.68164,-1.0683 0.54131,-0.1086 1.33,-0.5177 1.75391,-0.9082 0.42387,-0.3906 0.92626,-0.7396 1.11523,-0.7774 0.18891,-0.038 0.67711,-0.4374 1.08594,-0.8867 0.40883,-0.4494 1.13264,-0.9732 1.60742,-1.1641 0.76562,-0.3079 3.18468,-3.0795 3.89844,-4.4668 0.34515,-0.6707 1.80638,-1.7501 3.3086,-2.4433 0.73198,-0.3378 1.81534,-1.0131 2.4082,-1.502 1.07229,-0.8842 1.11632,-0.8966 8.58984,-2.3418 4.13186,-0.799 7.9791,-1.6303 8.54883,-1.8476 0.49105,-0.1873 2.36646,-1.0932 4.18164,-1.8028 0.66662,0.065 1.3825,0.113 2.18164,0.1407 2.40635,0.083 3.59339,0.024 5.19141,-0.2598 5.31282,-0.9426 12.31897,-4.0213 18.75781,-8.2383 -0.22024,-0.276 -0.53404,-0.4395 -0.92969,-0.4902 0.56165,-0.1606 1.13215,-0.3185 1.58399,-0.3789 0.0418,0.435 -0.0982,1.0793 -0.33594,1.7968 -0.0207,-0.29 -0.0726,-0.5482 -0.17773,-0.7461 -0.10758,0.1382 -0.12508,0.1789 -0.33594,0.4336 -5.19617,6.2782 -12.35314,9.7153 -21.8125,10.4747 -3.04592,0.2445 -4.50553,0.592 -5.60938,1.3359 -1.0103,0.6809 -0.97076,1.3396 0.125,2.0898 1.42617,0.9764 3.09745,1.3105 5.96875,1.1914 5.78854,-0.24 11.89133,-2.2538 16.59571,-5.4746 3.90121,-2.6708 6.65931,-5.5575 8.37304,-8.7285 0.54234,-0.2213 0.99777,-0.3291 1.30469,-0.25 0.19864,0.051 0.14262,0.4191 -0.0684,0.9727 -1.30873,1.8958 -4.90608,6.2975 -6.82422,8.2773 -4.65819,4.8079 -8.25271,7.111 -14.01562,8.9824 -0.52441,0.1703 -2.19216,0.445 -3.70703,0.6094 -3.00673,0.326 -4.66586,0.7416 -5.4336,1.3633 l -0.49609,0.4023 0.81445,0.7657 c 0.99806,0.9412 1.82656,1.3891 3.20703,1.7304 1.60086,0.3956 1.78856,0.3768 7.17578,-0.7461 4.78772,-0.9978 5.08321,-1.0896 6.65039,-2.0351 4.15119,-2.5044 7.55481,-5.6361 10.13282,-9.2793 0.86908,0.2542 1.65622,0.5136 1.76367,0.6289 0.0812,0.087 0.29996,0.1809 0.58594,0.2754 -3.56036,5.896 -5.96839,8.9662 -8.69336,11.1465 -2.84138,2.2733 -5.7262,3.4531 -9.29883,3.8027 l -1.42969,0.1406 v 0.7071 c 0,0.5805 0.13322,0.7903 0.74414,1.1679 0.40951,0.2531 1.00523,0.5388 1.32422,0.6348 1.04769,0.3154 3.7153,0.2177 5.45313,-0.1992 6.24597,-1.4987 11.28375,-5.5924 14.28515,-11.6094 0.72311,-1.4497 1.45466,-3.3977 2.00977,-5.1856 0.78551,0.052 1.98211,0.2733 2.98047,0.5704 2.5056,0.7458 7.36577,2.0524 8.68554,2.3359 3.89046,0.8353 3.98284,0.8709 8.22071,3.1758 1.70358,0.9265 3.11359,1.5039 5.94336,2.4336 0.35852,0.1198 0.84946,0.1762 1.08984,0.1308 0.24034,-0.046 0.62006,0.067 0.8457,0.25 0.22549,0.1828 1.6612,0.6694 3.18946,1.0821 1.52825,0.4128 2.86078,0.8379 2.96093,0.9453 0.10016,0.1103 0.37347,0.1582 0.60743,0.1113 0.23399,-0.047 1.14473,0.2101 2.02343,0.5703 1.36804,0.5608 1.65399,0.8049 1.99414,1.6973 0.21846,0.5733 0.4343,1.6433 0.47852,2.3769 0.12117,2.0099 0.89314,3.3462 2.24609,3.8887 0.61765,0.2477 2.33234,1.2209 3.81055,2.1621 1.47817,0.9413 2.7906,1.6905 2.91797,1.6641 0.12729,-0.025 0.71805,0.265 1.3125,0.6445 1.15147,0.7351 2.26919,1.2512 4.49609,2.0781 1.24615,0.4628 1.42632,0.6349 1.80469,1.7285 0.6045,1.747 1.02003,2.1278 2.73242,2.5098 0.83928,0.1872 1.79423,0.6147 2.12305,0.9492 0.37519,0.3815 1.04564,0.6356 1.79883,0.6836 1.67701,0.1056 3.35467,0.848 5.40234,2.3907 0.96503,0.727 1.87081,1.409 2.01367,1.5156 0.14272,0.1063 0.94491,0.2874 1.78321,0.4023 v 0 c 0.83822,0.1156 1.69081,0.1006 1.89453,-0.031 0.2036,-0.1319 1.49661,-0.566 2.87304,-0.9648 1.37647,-0.3987 3.10293,-0.9874 3.83789,-1.3086 1.7497,-0.765 3.52921,-2.8307 3.70118,-4.2969 0.0684,-0.5835 0.27202,-1.4033 0.45117,-1.8223 0.17953,-0.4189 0.34047,-1.1244 0.35937,-1.5683 0.03,-0.7378 0.11453,-0.8116 0.98242,-0.8418 0.52222,-0.019 0.99529,-0.1618 1.05274,-0.3164 0.24915,-0.6687 1.34513,-0.5023 2.16797,0.3281 0.685,0.6913 1.21977,0.8999 2.84765,1.1191 3.79971,0.5115 4.88191,0.2182 6.30078,-1.7148 0.50136,-0.683 1.25759,-1.5159 1.67969,-1.8496 0.80217,-0.6341 2.96294,-3.7336 2.88281,-4.1348 -0.0254,-0.1274 0.31397,-0.3029 0.75391,-0.3906 l 0.80078,-0.1602 0.16602,1.5684 c 0.16116,1.5238 0.20219,1.5994 1.46875,2.5645 l 1.30469,0.9921 0.6875,-0.9726 c 0.3784,-0.5352 0.82147,-1.439 0.98437,-2.0078 0.39572,-1.383 1.68291,-3.4006 2.24024,-3.5117 0.24657,-0.049 0.74616,0.1639 1.10937,0.4746 0.3634,0.3105 0.85161,0.5273 1.08594,0.4804 0.6672,-0.133 2.50059,-1.8553 3.63086,-3.4121 0.56587,-0.7795 1.18079,-1.4745 1.36523,-1.5429 0.1844,-0.069 2.42226,-0.5468 4.97461,-1.0625 l 4.64063,-0.9375 0.60937,-1.0313 c 0.44916,-0.7608 0.55548,-1.3026 0.4043,-2.0605 -0.33876,-1.6981 -0.9592,-2.4175 -3.10352,-3.5977 -1.12399,-0.6187 -2.5358,-1.4028 -3.13867,-1.7422 -0.60287,-0.3394 -1.83412,-1.3465 -2.73633,-2.2383 -2.42347,-2.3953 -4.42173,-2.8035 -7.00976,-1.4316 -0.72904,0.3865 -1.33537,0.9963 -1.75391,1.7598 -0.56867,1.0372 -0.76192,1.183 -1.71289,1.2929 -1.48362,0.1718 -1.73601,-0.5286 -0.51953,-1.4394 0.4992,-0.3738 0.92459,-0.828 0.94726,-1.0098 0.0212,-0.1818 -0.46947,-0.5777 -1.08984,-0.8808 -1.04538,-0.5112 -1.37984,-0.518 -4.5625,-0.076 l -3.43359,0.4765 -1.57422,-0.955 c -0.9902,-0.6014 -1.82428,-0.9082 -2.25,-0.8262 -0.83263,0.1609 -1.21671,0.014 -1.78711,-0.6895 -0.41137,-0.5087 -0.55779,-0.5105 -2.09375,-0.037 -1.71526,0.5286 -2.87011,0.4384 -3.00391,-0.2324 -0.0385,-0.193 -0.34161,-0.5121 -0.67383,-0.7109 -0.33237,-0.1986 -0.74808,-0.6681 -0.92382,-1.043 -0.46205,-0.9857 -2.18982,-2.0875 -3.25391,-2.0762 -0.73115,0.01 -1.12977,0.2255 -1.98047,1.0703 -1.60641,1.5953 -5.16729,2.5852 -7.05664,1.9629 -2.26012,-0.7443 -2.91922,-1.0495 -4.61328,-2.1425 -1.58559,-1.0231 -1.98213,-1.4371 -2.57813,-2.6914 -1.02837,-2.1644 -1.47881,-2.7824 -2.25195,-3.0938 -0.48374,-0.1949 -1.12606,-1.0466 -2.13867,-2.834 -1.37507,-2.4272 -1.56764,-2.6393 -3.875,-4.248 -2.56483,-1.7883 -5.26697,-2.8173 -6.66211,-2.5391 -0.42512,0.085 -1.28517,0.4064 -1.91016,0.7149 -1.20665,0.5949 -1.43494,0.6068 -6.35547,0.3339 -3.94518,-0.2189 -4.89617,-0.3848 -5.44726,-0.9453 -0.96794,-0.9846 -3.00662,-1.2997 -5.28125,-0.8183 -2.73007,0.5777 -4.23894,1.1389 -5.31055,1.9765 -0.4919,0.3845 -1.10961,0.7429 -1.37304,0.7969 -0.26351,0.054 -1.08144,0.5426 -1.81641,1.084 -2.03104,1.496 -3.72871,1.9292 -5.50781,1.4082 -0.79631,-0.2334 -1.89896,-0.4197 -2.44922,-0.4121 -0.55026,0.01 -1.25296,-0.1765 -1.5625,-0.4063 -0.30943,-0.2294 -0.69604,-0.3896 -0.85742,-0.3593 -0.16154,0.032 -1.08819,-0.1593 -2.06055,-0.4239 -0.97232,-0.2647 -1.96306,-0.4414 -2.20117,-0.3945 -0.23819,0.047 -0.76543,-0.084 -1.17188,-0.2891 -0.40645,-0.2053 -1.80395,-0.6824 -3.10547,-1.0605 -1.30151,-0.378 -2.98083,-0.9339 -3.73047,-1.2344 -0.74959,-0.3005 -1.834,-0.7086 -2.41015,-0.9082 -0.57623,-0.1994 -1.67294,-0.6696 -2.4375,-1.0449 -0.76452,-0.3755 -1.98194,-0.9142 -2.70508,-1.1973 -0.7231,-0.283 -2.37199,-1.2015 -3.66406,-2.041 -1.87287,-1.2169 -2.42609,-1.7282 -2.72657,-2.5215 -0.20723,-0.5471 -0.65272,-1.5046 -0.99023,-2.1269 -0.33744,-0.6224 -0.76887,-1.5592 -0.95898,-2.0821 -0.24654,-0.6783 -0.693,-1.1474 -1.56055,-1.6386 -1.53453,-0.8689 -3.78965,-1.7075 -4.31055,-1.6036 -0.21891,0.044 -0.75196,-0.1003 -1.18554,-0.3203 -0.43355,-0.2203 -1.08362,-0.3413 -1.44532,-0.2695 -0.36147,0.072 -1.16278,-0.082 -1.77929,-0.3418 -0.61648,-0.26 -1.27549,-0.4421 -1.46485,-0.4043 -0.31445,0.063 -1.48439,-0.3452 -4.39648,-1.5332 -0.5929,-0.2419 -1.22798,-0.4128 -1.41016,-0.375 -0.18228,0.036 -0.70679,-0.1112 -1.16797,-0.3281 -0.54776,-0.2574 -1.47693,-0.3267 -2.67968,-0.2012 -2.02198,0.2106 -1.88239,0.2652 -5.84961,-2.2969 -1.25299,-0.8092 -2.39261,-1.4463 -2.53321,-1.4199 -0.14048,0.028 -0.59096,-0.1891 -1.00195,-0.4824 -0.41095,-0.2932 -1.10404,-0.5413 -1.53906,-0.5488 -0.43499,-0.01 -1.11062,-0.1762 -1.50196,-0.3731 -0.39125,-0.1966 -1.03257,-0.3908 -1.42382,-0.4316 -0.39126,-0.041 -1.10763,-0.2913 -1.59375,-0.5567 -0.48609,-0.2649 -1.00658,-0.4579 -1.15625,-0.4277 -0.3004,0.06 -1.14233,-0.3267 -4.03125,-1.8594 -2.66094,-1.4115 -3.26544,-1.6182 -4.61133,-1.5683 z m 49.99805,37.3925 c 0.30847,-0.3962 0.3463,-0.499 -0.0898,-0.2128 -0.0167,0.011 -0.0341,0.02 -0.0508,0.031 0.0478,0.06 0.10274,0.1104 0.14063,0.1816 z m 5.21484,24.002 c -0.20281,-0.03 -0.91075,0.5318 -2.30469,1.8223 -1.24282,1.1505 -2.25976,2.1858 -2.25976,2.3007 0,0.115 0.47812,0.7299 1.06054,1.3672 3.46099,3.7869 6.11519,9.498 6.79883,14.627 0.50188,3.7654 -0.26579,11.0089 -1.39844,13.1992 -0.52603,1.0173 -2.1022,2.6355 -3.91797,4.0215 -1.76182,1.3448 -3.18137,2.7963 -3.68359,3.7676 -0.41949,0.8113 -0.64412,2.2003 -0.46875,2.8984 l 0.13477,0.5391 1.21484,-0.6094 c 0.66769,-0.3351 1.74622,-0.7618 2.39648,-0.9492 0.96953,-0.2793 1.50679,-0.6428 2.98243,-2.0235 3.74105,-3.5001 6.02038,-7.9546 7.1875,-14.041 0.384,-2.0022 0.43199,-2.7348 0.29101,-4.414 -0.25096,-2.9934 -0.23482,-4.8183 0.043,-5.0957 0.18501,-0.1847 0.70303,-0.137 2.11914,0.1953 4.59689,1.0791 9.18316,1.0291 12.66406,-0.1387 1.98505,-0.666 2.13693,-0.944 1.37891,-2.5098 -0.91408,-1.8882 -2.18349,-2.1425 -6.17188,-1.2422 -2.666,0.6018 -4.25369,0.6672 -5.41015,0.2227 -0.43937,-0.1689 -1.22756,-0.4186 -1.75,-0.5527 -2.24013,-0.5758 -4.51981,-2.3071 -6.23828,-4.7364 -0.79427,-1.1227 -4.33089,-7.7176 -4.61133,-8.5996 -0.009,-0.028 -0.0277,-0.044 -0.0566,-0.049 z m -7.61328,6.7695 -1.83399,0.1309 c -2.64397,0.1877 -2.71028,0.2287 -3.26757,1.9863 -0.68081,2.1474 -2.53096,5.5242 -5.36719,9.8008 -2.55485,3.8523 -4.34229,7.1702 -5.13867,9.5391 -0.58734,1.7467 -0.78564,5.7201 -0.36524,7.3105 0.31461,1.1901 0.36856,1.2053 2.59961,0.7422 l 1.10742,-0.2305 0.13672,-1.623 c 0.35467,-4.1961 2.30219,-8.7065 5.73438,-13.2793 1.57394,-2.0971 4.16536,-5.1707 4.3789,-5.1934 0.0689,-0.01 0.38937,0.4722 0.71289,1.0664 l 0.58789,1.0801 -0.10547,4.0567 c -0.12105,4.6672 -0.3753,6.2453 -2.27539,14.123 -2.12757,8.8208 -1.73677,8.7547 -1.43554,13.7012 0.40426,6.6378 5.12052,8.3605 10.07226,9.0175 2.50141,0.332 3.38218,0.2365 3.66602,-0.5136 0.0994,-0.2622 0.25052,-1.0815 0.33594,-1.8203 0.14902,-1.2902 0.13025,-1.3688 -0.4668,-2.0118 -2.47763,-2.6679 -8.03185,0.6118 -8.99219,-4.6386 -0.55608,-3.0402 -0.57964,-3.7023 0.40625,-9.1797 2.03418,-11.3015 2.70573,-15.9027 2.49219,-21.082 -0.18713,-4.5336 -0.76375,-7.3314 -2.32617,-11.3106 z m -6.69727,35.0196 -0.79492,0.01 c -0.43699,0 -2.30171,0.091 -4.14453,0.1934 -2.99233,0.1657 -3.4754,0.2479 -4.51367,0.7558 -1.33852,0.6549 -2.175,1.7381 -2.34961,3.0411 l -0.11328,0.8476 0.92578,0.084 c 1.86361,0.1658 2.23974,0.1491 6.10351,-0.2734 5.4946,-0.6009 4.88672,-0.2722 4.88672,-2.6465 z"
         transform="matrix(0.26458333,0,0,0.26458333,0,11.24997)"
         id="path2340"
         inkscape:connector-curvature="0"
         sodipodi:nodetypes="ccccccccccccccccccccccscccccccccccccccscsccccccccccccscscccccccccccccccsccccccccsccccscccccccccccccccccccccccscccccccccccccccccccccccccccccccccsccccccccccccccccccccccccccccccccccccccccccccccccccccccccccccsccccccccccccccccccccccccccccccccccccccscccccccccccccccccccccccccccccccccccsccccscccccccccccccccccccccccccccccccsccccccscccccccccccsc" />
    </g>
  </g>
  <g
     inkscape:groupmode="layer"
     id="layer5"
     inkscape:label="pip-ol"
     sodipodi:insensitive="true"
     style="display:none">
    <rect
       transform="translate(0,-11.24997)"
       style="opacity:1;fill:#ff0000;fill-opacity:1;stroke:none;stroke-width:1.11722362;stroke-linecap:round;stroke-linejoin:round;stroke-miterlimit:4;stroke-dasharray:none;stroke-dashoffset:0;stroke-opacity:1"
       id="rect1191-7"
       width="407.45834"
       height="229.12917"
       x="11.90625"
       y="17.864555"
       rx="0"
       ry="0"
       inkscape:export-xdpi="38.099998"
       inkscape:export-ydpi="38.099998" />
  </g>
  <g
     inkscape:groupmode="layer"
     id="layer4"
     inkscape:label="pip-ur"
     sodipodi:insensitive="true"
     style="display:none">
    <rect
       transform="translate(0,-11.24997)"
       style="opacity:1;fill:#ff00ff;fill-opacity:1;stroke:none;stroke-width:0.23218393;stroke-linecap:round;stroke-linejoin:round;stroke-miterlimit:4;stroke-dasharray:none;stroke-dashoffset:0;stroke-opacity:1"
       id="rect1191-7-5"
       width="84.666664"
       height="47.625"
       x="418.57077"
       y="244.61253"
       rx="0"
       ry="0"
       inkscape:export-xdpi="38.099998"
       inkscape:export-ydpi="38.099998" />
  </g>
</svg>
