<?xml version="1.0" encoding="UTF-8" standalone="no"?>
<svg
   xmlns:dc="http://purl.org/dc/elements/1.1/"
   xmlns:cc="http://creativecommons.org/ns#"
   xmlns:rdf="http://www.w3.org/1999/02/22-rdf-syntax-ns#"
   xmlns:svg="http://www.w3.org/2000/svg"
   xmlns="http://www.w3.org/2000/svg"
   xmlns:xlink="http://www.w3.org/1999/xlink"
   height="1080"
   width="1920"
   version="1.1"
   id="Ebene_1"
   x="0px"
   y="0px"
   viewBox="0 0 1920 1080"
   xml:space="preserve"><metadata
   id="metadata56"><rdf:RDF><cc:Work
       rdf:about=""><dc:format>image/svg+xml</dc:format><dc:type
         rdf:resource="http://purl.org/dc/dcmitype/StillImage" /><dc:title></dc:title></cc:Work></rdf:RDF></metadata><defs
   id="defs54"><linearGradient
     y2="9.5299997"
     x2="35.900002"
     y1="69.029999"
     x1="35.900002"
     gradientTransform="matrix(6.075918,0,0,-6.075918,1511.4411,692.89609)"
     gradientUnits="userSpaceOnUse"
     id="linearGradient35"
     xlink:href="#SVGID_1_" /><linearGradient
     xlink:href="#SVGID_1_"
     id="linearGradient4647"
     gradientUnits="userSpaceOnUse"
     gradientTransform="matrix(1.5147126,0,0,-1.5147126,258.67752,1064.4148)"
     x1="35.900002"
     y1="69.029999"
     x2="35.900002"
     y2="9.5299997" /></defs>
<style
   type="text/css"
   id="style2">
	.st0{fill:#616364;}
	.st1{fill:#393536;}
	.st2{fill:url(#SVGID_1_);}
</style>
<rect
   style="opacity:1;vector-effect:none;fill:#000000;fill-opacity:1;stroke:none;stroke-width:1.86474776px;stroke-linecap:butt;stroke-linejoin:miter;stroke-miterlimit:4;stroke-dasharray:none;stroke-dashoffset:0;stroke-opacity:1"
   id="rect839"
   width="2937.9661"
   height="1720.678"
   x="-551.86896"
   y="-124.28129" />

















<g
   id="g858"
   transform="matrix(0.78784564,0,0,0.78784564,-883.17956,238.51996)"
   style="fill:#999999"><text
   xml:space="preserve"
   style="font-style:normal;font-weight:normal;font-size:100.83070374px;line-height:1.25;font-family:sans-serif;letter-spacing:0px;word-spacing:0px;fill:#999999;fill-opacity:1;stroke:none;stroke-width:2.52076769"
   x="1633.4662"
   y="1008.4232"
   id="text4651"><tspan
     id="tspan4649"
     x="1633.4662"
     y="1008.4232"
     style="font-style:normal;font-variant:normal;font-weight:bold;font-stretch:normal;font-family:'Exo 2';-inkscape-font-specification:'Exo 2 Bold';fill:#999999;stroke-width:2.52076769">toolbox-bodensee.de</tspan></text>


</g>
<linearGradient
   id="SVGID_1_"
   gradientUnits="userSpaceOnUse"
   x1="35.900002"
   y1="69.029999"
   x2="35.900002"
   y2="9.5299997"
   gradientTransform="matrix(1.9226007,0,0,-1.9226007,1406.2146,1042.1343)">
	<stop
   offset="0"
   style="stop-color:#E64F2D"
   id="stop42" />
	<stop
   offset="0.5"
   style="stop-color:#D74126"
   id="stop44" />
	<stop
   offset="1"
   style="stop-color:#9B160F"
   id="stop46" />
</linearGradient>
<path
   style="fill:url(#linearGradient4647);stroke-width:1.51471269"
   class="st2"
   d="m 351.83239,982.27186 -38.77666,-22.4177 -38.77658,22.4177 v 45.44144 0 l 38.62515,22.2663 v 0 0 0 0 l 38.77666,-22.4177 v 0 0 -18.0251 0 0 l -8.02799,-4.5441 8.02799,-4.5442 v -0.1515 0 z m -8.02791,31.80904 v 8.7854 l -26.81047,15.45 v -35.8986 l 9.5427,-5.60454 -8.02799,-4.6956 -24.08389,13.93544 8.02791,4.6956 6.36178,-3.6354 v 31.2031 l -26.50738,-15.2985 v -36.05024 l 30.74859,-17.72217 30.74875,17.72217 v 8.7853 l -16.20748,9.39124 v 9.2398 l 8.17949,-4.6957 z"
   id="path49" />
<path
   id="path33"
   d="m 1885.1102,363.39898 -155.5436,-89.9236 -155.5432,89.9236 v 182.27747 0 l 154.9358,89.31609 v 0 0 0 0 l 155.5436,-89.92348 v 0 0 -72.30354 0 0 l -32.2024,-18.22777 32.2024,-18.22775 v -0.6076 0 z m -32.2021,127.59423 v 35.24038 l -107.544,61.97416 V 444.20872 l 38.2784,-22.48093 -32.2024,-18.83533 -96.607,55.89846 32.2021,18.83533 25.5188,-14.58219 V 588.20775 L 1606.2258,526.84131 V 382.23435 l 123.3408,-71.08826 123.3415,71.08826 v 35.24031 l -65.0125,37.6707 v 37.06297 l 32.8101,-18.83521 z"
   class="st2"
   style="fill:url(#linearGradient35);stroke-width:6.07591915" /><g
   transform="translate(32,128)"
   id="g4643"
   style="fill:#e6e6e6"><path
     style="fill:#e6e6e6;stroke-width:2.49030542"
     class="st1"
     d="m 1567.6222,649.95393 c 3.2374,0 4.4826,-0.74711 4.9808,-4.23349 0.498,-2.98834 -0.4982,-3.4865 -3.7356,-3.4865 h -4.9806 l -0.9961,7.71999 c 0,0 4.7315,0 4.7315,0 z m -1.9921,13.44767 c 3.9844,0 5.2295,-0.74712 5.7276,-4.48257 0.4981,-3.48632 -0.4981,-4.48252 -3.9844,-4.48252 h -5.2297 l -1.245,8.96509 z m -7.72,-26.14814 c 3.4864,-0.24908 6.4748,-0.24908 11.2064,-0.24908 7.7198,0 10.9574,1.74331 9.9612,8.21803 -0.7471,4.23349 -2.2414,6.47484 -6.2258,6.72379 v 0.24908 c 4.7315,0.24896 5.9768,3.48638 5.2297,8.46694 -0.9962,6.22589 -3.9845,7.71999 -11.2064,7.71999 -6.2259,0 -9.4631,0 -13.1987,-0.24908 l 4.2336,-30.87967"
     id="path872" /><path
     style="fill:#e6e6e6;stroke-width:2.49030542"
     class="st1"
     d="m 1590.284,652.9424 c -1.2451,7.9689 -0.249,10.21012 4.4825,10.21012 4.7316,0 6.4748,-2.24122 7.72,-10.70828 1.2451,-8.21803 0.2491,-10.2103 -4.4825,-10.2103 -4.7316,0 -6.4748,2.24135 -7.72,10.70846 z m 19.1754,0 c -1.7432,12.20239 -5.7278,15.68876 -14.9419,15.68876 -9.4631,0 -13.1986,-3.73532 -11.4554,-16.43588 1.7433,-11.95348 5.4786,-15.68894 14.9419,-15.68894 9.4631,0.24908 13.1987,4.23349 11.4554,16.43606"
     id="path874" /><path
     style="fill:#e6e6e6;stroke-width:2.49030542"
     class="st1"
     d="m 1620.1677,663.15252 c 1.4941,0 2.9883,0 3.9845,0 5.2296,0 7.2219,-1.4941 8.467,-10.70828 1.2452,-8.71594 0.2491,-10.2103 -4.9805,-10.2103 h -4.7316 z m -3.2374,-25.89906 c 3.2374,-0.24908 7.72,-0.49804 10.9574,-0.49804 9.9612,0 13.6965,3.73546 11.9535,16.18698 -1.9923,13.44754 -5.7277,15.68876 -15.689,15.68876 -3.7355,0 -7.969,-0.24895 -11.7044,-0.49803 l 4.4825,-30.87967"
     id="path876" /><path
     style="fill:#e6e6e6;stroke-width:2.49030542"
     class="st1"
     d="m 1655.2809,642.7321 c -1.743,0 -2.4902,0.49804 -2.4902,2.49031 l -0.7471,4.73152 h 12.2025 l -0.7472,4.73166 h -12.2024 l -0.7471,5.97663 c -0.249,1.74331 0.2491,2.24135 1.9923,2.24135 h 11.4554 l -0.2491,4.98048 c -3.9844,0.49816 -8.965,0.49816 -13.4476,0.49816 -5.2297,0 -7.4709,-2.98847 -6.7239,-7.47091 l 2.4903,-17.68116 c 0.4982,-3.73546 2.9885,-5.97668 7.4711,-5.97668 4.9806,0 10.2101,0 14.1947,0.49803 l -0.7472,4.98061 h -11.7045"
     id="path878" /><path
     style="fill:#e6e6e6;stroke-width:2.49030542"
     class="st1"
     d="m 1694.8768,665.89191 c -0.2489,1.4941 -0.996,2.24122 -2.4903,2.24122 h -3.7353 c -1.4944,0 -1.9923,-0.74712 -2.4904,-2.24122 l -6.2258,-16.43601 c -0.498,-1.24515 -0.9961,-3.23742 -1.2451,-4.73153 h -0.4981 c 0,1.49411 -0.2489,3.23729 -0.2489,4.73153 l -2.4905,18.42815 h -6.4747 l 3.9844,-28.63832 c 0.2491,-1.49424 0.9962,-2.24135 2.4903,-2.24135 h 3.7356 c 1.4941,0 1.9922,0.74711 2.4903,2.24135 l 5.9767,15.93789 c 0.498,1.49419 1.2452,3.23737 1.4941,4.98056 h 0.4982 c 0,-1.74319 0,-3.23742 0.2489,-4.98056 l 2.4903,-18.17924 h 6.4749 l -3.9846,28.88753"
     id="path880" /><path
     style="fill:#e6e6e6;stroke-width:2.49030542"
     class="st1"
     d="m 1708.0755,654.18755 c -4.7317,-1.99227 -5.7278,-4.98073 -5.2296,-9.21423 0.9961,-6.97274 4.7315,-8.2179 11.9534,-8.2179 3.2374,0 6.9728,0.24896 10.2103,1.24516 l -0.7472,4.73152 c -2.7392,0 -6.2257,-0.24895 -9.7121,-0.24895 -3.2374,0 -4.4826,0 -4.9806,2.98821 -0.2491,1.99227 0.249,2.4903 2.4903,3.4865 l 5.4787,2.24122 c 4.9806,1.99227 5.9766,4.48258 5.2296,9.21418 -0.9962,6.97275 -3.9845,8.71594 -12.2025,8.71594 -2.2412,0 -6.2258,-0.24895 -10.7084,-1.24515 l 0.7472,-4.98048 c 5.7277,0.24895 8.218,0.24895 9.7121,0.24895 3.9845,0 5.2298,-0.49804 5.7277,-3.23729 0.2491,-1.99227 -0.2489,-2.49044 -2.2412,-3.23742 l -5.7277,-2.49026"
     id="path882" /><path
     style="fill:#e6e6e6;stroke-width:2.49030542"
     class="st1"
     d="m 1738.9553,642.7321 c -1.7433,0 -2.4903,0.49804 -2.4903,2.49031 l -0.7471,4.73152 h 12.2024 l -0.7469,4.73166 h -12.2026 l -0.747,5.97663 c -0.2492,1.74331 0.2489,2.24135 1.9921,2.24135 h 11.4555 l -0.2491,4.98048 c -3.9844,0.49816 -8.9651,0.49816 -13.4477,0.49816 -5.2296,0 -7.4708,-2.98847 -6.7237,-7.47091 l 2.4902,-17.68116 c 0.498,-3.73546 2.9885,-5.97668 7.4709,-5.97668 4.9806,0 10.2103,0 14.1948,0.49803 l -0.7471,4.98061 h -11.7044"
     id="path884" /><path
     style="fill:#e6e6e6;stroke-width:2.49030542"
     class="st1"
     d="m 1764.6055,642.7321 c -1.7433,0 -2.4904,0.49804 -2.4904,2.49031 l -0.747,4.73152 h 12.2024 l -0.7471,4.73166 h -12.2025 l -0.7471,5.97663 c -0.2491,1.74331 0.2491,2.24135 1.9923,2.24135 h 11.4554 l -0.249,4.98048 c -3.9846,0.49816 -8.9652,0.49816 -13.4478,0.49816 -5.2295,0 -7.4709,-2.98847 -6.7238,-7.47091 l 2.4905,-17.68116 c 0.4979,-3.73546 2.9882,-5.97668 7.4708,-5.97668 4.9806,0 10.2103,0 14.1947,0.49803 l -0.747,4.98061 h -11.7044"
     id="path886" /><path
     style="fill:#e6e6e6;stroke-width:2.49030542"
     class="st1"
     d="m 1800.2169,655.43271 c 2.2412,-0.24909 3.4863,-0.74712 3.7353,-2.98847 0.2491,-1.99214 -0.747,-2.24123 -3.4864,-2.24123 -3.4865,0 -4.4826,0.99607 -5.2295,5.47865 z m 7.9689,11.70435 c -2.7394,1.24515 -6.7239,1.4941 -9.7123,1.4941 -8.716,0 -11.2063,-3.98441 -10.4592,-11.95335 0.9961,-8.9651 4.7315,-11.20645 12.7005,-11.20645 8.218,0 10.2103,2.98847 9.4633,7.71999 -0.7471,4.23344 -3.4865,5.72768 -8.9652,6.22571 l -6.4748,0.49817 c 0,3.23729 1.7432,3.73545 4.4826,3.73545 2.2412,0 5.9766,-0.24908 8.4669,-0.49816 l 0.4982,3.98454"
     id="path888" /><path
     style="fill:#e6e6e6;stroke-width:2.49030542"
     class="st1"
     d="m 1816.9017,661.40933 c 1.4943,0 2.4905,0.74712 2.2414,2.49031 l -0.2491,2.24122 c -0.2489,1.49423 -0.9961,2.24135 -2.4902,2.24135 h -1.7433 c -1.7432,0 -2.4903,-0.74712 -2.2412,-2.4903 l 0.249,-2.24123 c 0.249,-1.49423 0.9962,-2.24135 2.4904,-2.24135 h 1.743"
     id="path890" /><path
     style="fill:#e6e6e6;stroke-width:2.49030542"
     class="st1"
     d="m 1838.5675,666.38994 c -0.498,0.99607 -1.2452,1.74319 -2.4903,1.74319 h -6.2258 c -1.2451,0 -1.9922,-0.99607 -2.2413,-1.99227 l -4.4825,-28.8874 h 6.9729 l 2.4902,22.1636 c 0.2491,1.24516 0.2491,2.49031 0.2491,3.73546 h 0.9962 c 0.2489,-1.24515 0.747,-2.4903 1.2451,-3.73546 l 8.716,-22.1636 h 7.2219 l -12.4515,29.13648"
     id="path892" /><path
     style="fill:#e6e6e6;stroke-width:2.49030542"
     class="st1"
     d="m 1852.5133,661.40933 c 1.4941,0 2.4903,0.74712 2.2412,2.49031 l -0.2491,2.24122 c -0.249,1.49423 -0.9961,2.24135 -2.4903,2.24135 h -1.7432 c -1.7432,0 -2.4903,-0.74712 -2.2412,-2.4903 l 0.2489,-2.24123 c 0.2491,-1.49423 0.9962,-2.24135 2.4903,-2.24135 h 1.7434"
     id="path894" /></g><g
   transform="translate(32,128)"
   id="g4629"
   style="fill:#ffffff"><path
     style="fill:#ffffff;stroke-width:2.49030542"
     class="st0"
     d="m 1601.2413,592.926 c -1.245,8.21802 -0.4979,10.21026 4.9806,10.21026 5.2297,0 6.724,-2.24128 7.9691,-11.45541 1.245,-8.46704 0.4981,-10.45928 -4.4826,-10.45928 -5.4786,0.24903 -7.2219,2.24127 -8.4671,11.70443 z m 28.1405,0 c -2.2412,15.19086 -8.467,20.4205 -23.6579,20.4205 -15.4399,0 -21.9147,-5.7277 -19.6733,-21.66565 1.9922,-15.43989 8.218,-20.66954 23.9068,-20.66954 15.1909,0.24903 21.6658,6.22576 19.4244,21.91469"
     id="path860" /><path
     style="fill:#ffffff;stroke-width:2.49030542"
     class="st0"
     d="m 1650.0514,592.926 c -1.2452,8.21802 -0.4981,10.21026 4.9806,10.21026 5.2295,0 6.7239,-2.24128 7.9689,-11.45541 1.2452,-8.46704 0.498,-10.45928 -4.4824,-10.45928 -5.4788,0.24903 -7.222,2.24127 -8.4671,11.70443 z m 28.1404,0 c -2.2412,15.19086 -8.467,20.4205 -23.6579,20.4205 -15.4398,0 -21.9147,-5.7277 -19.6733,-21.66565 1.9921,-15.43989 8.2179,-20.66954 23.9068,-20.66954 15.1909,0.24903 21.6658,6.22576 19.4244,21.91469"
     id="path862" /><path
     style="fill:#ffffff;stroke-width:2.49030542"
     class="st0"
     d="m 1698.6123,598.90273 c -0.498,2.49031 0.2491,3.2374 3.4864,3.2374 h 3.4865 l 0.7471,9.96122 c -2.2414,1.24515 -8.218,1.74321 -10.7084,1.74321 -8.4671,0 -12.9495,-4.48255 -12.2025,-11.4554 l 6.4748,-46.31968 h 14.6929 l -5.9768,42.83325"
     id="path864" /><path
     style="fill:#ffffff;stroke-width:2.49030542"
     class="st0"
     d="m 1726.0056,603.13626 c 1.9923,0.24902 3.7355,0.24902 4.9806,0.24902 5.7278,-0.24902 7.471,-1.99224 8.9652,-11.70443 0.9961,-7.47091 0.498,-8.9651 -2.4903,-8.9651 -2.9884,0 -5.9767,1.49419 -8.965,3.98449 z m 4.9806,-35.61138 c -0.2489,3.48643 -0.996,6.72384 -2.4901,10.21026 3.9844,-3.73546 9.2141,-6.72383 14.9418,-6.72383 9.7121,0 13.6965,6.22576 11.4553,21.41663 -1.7432,12.70057 -6.9729,20.91856 -22.4127,20.91856 -5.9767,0 -17.4322,-1.24515 -22.4128,-3.2374 l 7.72,-54.53769 h 14.6928 l -1.4943,11.95347"
     id="path866" /><path
     style="fill:#ffffff;stroke-width:2.49030542"
     class="st0"
     d="m 1775.8117,592.926 c -1.245,8.21802 -0.4979,10.21026 4.9806,10.21026 5.2297,0 6.724,-2.24128 7.969,-11.45541 1.2451,-8.46704 0.4981,-10.45928 -4.4825,-10.45928 -5.4786,0.24903 -7.2219,2.24127 -8.4671,11.70443 z m 28.1405,0 c -2.2412,15.19086 -8.467,20.4205 -23.6578,20.4205 -15.44,0 -21.9148,-5.7277 -19.6735,-21.66565 1.9923,-15.43989 8.2179,-20.66954 23.907,-20.66954 15.4399,0.24903 21.6656,6.22576 19.4243,21.91469"
     id="path868" /><polyline
     transform="matrix(2.4903053,0,0,2.4903053,1365.9076,512.48914)"
     style="fill:#ffffff"
     class="st0"
     points="194.3,40.2 188.7,40.2 186.1,33.7 181.6,40.2 175.5,40.2 181.5,31.9 178.2,24 183.7,24 186.1,30.1   190.4,24 196.4,24 190.7,31.9 194.3,40.2 "
     id="polyline870" /><polyline
     transform="matrix(2.4903053,0,0,2.4903053,1365.9076,512.48914)"
     style="fill:#ffffff"
     class="st0"
     points="84.8,22.8 82.4,40.4 75.1,40.4 77.6,22.8 71.3,22.8 72,17.4 92,17.4 91.2,22.8 84.8,22.8 "
     id="polyline896" /></g><path
   style="fill:#1a1a1a;stroke-width:2.79836369"
   class="st2"
   d="M 591.5611,439.29233 519.92297,397.87655 448.285,439.29233 v 83.95086 0 l 71.35822,41.13598 v 0 0 0 0 l 71.63814,-41.41572 v 0 0 -33.30058 0 0 l -14.83132,-8.39509 14.83132,-8.39509 v -0.27984 0 z m -14.8312,58.7656 v 16.23053 l -49.53113,28.54321 v -66.3211 l 17.62974,-10.35396 -14.83134,-8.67491 -44.49394,25.74494 14.8312,8.67492 11.75311,-6.71606 v 57.64617 l -48.9712,-28.26331 v -66.60109 l 56.80663,-32.74086 56.80693,32.74086 v 16.2305 l -29.94256,17.34985 v 17.06996 l 15.11123,-8.67487 z"
   id="path845" /><path
   id="path849"
   d="m 834.25453,442.52824 -71.63813,-41.41578 -71.63797,41.41578 v 83.95086 0 l 71.35822,41.13598 v 0 0 0 0 l 71.63814,-41.41572 v 0 0 -33.30058 0 0 l -14.83132,-8.39509 14.83132,-8.39509 v -0.27984 0 z m -14.8312,58.7656 v 16.23053 l -49.53113,28.54321 v -66.3211 l 17.62974,-10.35396 -14.83134,-8.67491 -44.49394,25.74494 14.8312,8.67492 11.75311,-6.71606 v 57.64617 l -48.9712,-28.26331 v -66.60109 l 56.80663,-32.74086 56.80693,32.74086 v 16.2305 l -29.94256,17.34985 v 17.06996 l 15.11123,-8.67487 z"
   class="st2"
   style="fill:#1a1a1a;stroke-width:2.79836369" /></svg>